<?xml version="1.0" encoding="utf-8"?>
<!-- Generator: Adobe Illustrator 16.0.3, SVG Export Plug-In . SVG Version: 6.00 Build 0)  -->
<!DOCTYPE svg PUBLIC "-//W3C//DTD SVG 1.1//EN" "http://www.w3.org/Graphics/SVG/1.1/DTD/svg11.dtd">
<svg version="1.1" id="Layer_1" xmlns="http://www.w3.org/2000/svg" xmlns:xlink="http://www.w3.org/1999/xlink" x="0px" y="0px"
	 width="478.205px" height="350px" viewBox="0 0 478.205 350" enable-background="new 0 0 478.205 350" xml:space="preserve">
<path fill="#FFD800" d="M318.646,81.64c5.924-7,11.853-17.198,11.853-30.025h-10c0,10.175-5.096,18.473-10.026,24.134
	c-1.809-1.13-3.705-2.224-5.696-3.272c-3.268-1.722-6.728-3.298-10.35-4.729c4.664-6.657,8.605-15.363,8.605-25.816h-10
	c0,9.172-4.144,16.818-8.571,22.386c-5.326-1.597-10.912-2.904-16.695-3.91c4.303-6.494,7.8-14.788,7.8-24.633h-10
	c0,9.552-4.491,17.453-9.12,23.069c-5.286-0.54-10.688-0.831-16.16-0.876c4.311-6.495,7.813-14.8,7.813-24.658h-10
	c0,10.721-5.659,19.369-10.821,25.033c-4.221,0.279-8.379,0.707-12.456,1.285c3.34-5.934,5.81-13.106,5.81-21.377h-10
	c0,10.121-5.044,18.395-9.951,24.055c-3.333,0.797-6.59,1.69-9.742,2.697c1.375-4.067,2.226-8.539,2.226-13.387h-10
	c0,7.293-2.621,13.627-5.921,18.717c-1.482,0.691-2.944,1.4-4.357,2.145c-19.812,10.439-30.723,25.049-30.723,41.139
	c0,16.089,10.911,30.698,30.723,41.138c17.78,9.369,41.2,14.528,65.944,14.528c24.745,0,48.164-5.159,65.944-14.528
	c19.812-10.439,30.723-25.049,30.723-41.138C335.499,101.803,329.612,90.792,318.646,81.64z M251.918,158.763
	c-4.268,0.34-8.638,0.518-13.086,0.518c-4.449,0-8.818-0.178-13.086-0.518c-17.89-5.57-30.878-22.26-30.878-41.982
	c0-24.281,19.684-43.965,43.964-43.965c24.28,0,43.965,19.684,43.965,43.965C282.797,136.503,269.809,153.192,251.918,158.763z
	 M152.165,113.614c0-20.193,24.875-37.323,59.359-43.352c-15.935,9.391-26.656,26.721-26.656,46.518
	c0,14.686,5.902,28.014,15.453,37.751C171.782,147.06,152.165,131.545,152.165,113.614z M277.325,154.536
	c9.56-9.736,15.472-23.064,15.472-37.756c0-19.797-10.722-37.127-26.656-46.518c34.483,6.028,59.358,23.158,59.358,43.352
	C325.499,131.549,305.874,147.066,277.325,154.536z M238.832,106.077c-5.911,0-10.703,4.791-10.703,10.703
	c0,5.91,4.792,10.701,10.703,10.701c5.911,0,10.703-4.791,10.703-10.701C249.535,110.868,244.743,106.077,238.832,106.077z
	 M238.832,117.481c-0.388,0-0.703-0.314-0.703-0.701c0-0.389,0.315-0.703,0.703-0.703s0.703,0.314,0.703,0.703
	C239.535,117.167,239.22,117.481,238.832,117.481z M437.551,217.514H40.115v-10h397.436V217.514z M85.668,257.838
	c-7.229,0-13.104,5.874-13.104,12.991v41.004c0,1.018,0.791,1.808,1.807,1.808h3.615c1.017,0,1.808-0.79,1.808-1.808v-22.479h11.635
	v22.479c0,1.018,0.791,1.808,1.808,1.808h3.615c1.017,0,1.807-0.79,1.807-1.808v-41.004
	C98.658,263.712,92.784,257.838,85.668,257.838z M91.429,282.124H79.794v-11.295c0-3.164,2.598-5.762,5.874-5.762
	c3.163,0,5.761,2.598,5.761,5.762V282.124z M121.136,257.726h-9.489c-2.033,0-3.615,1.581-3.615,3.614v48.687
	c0,1.92,1.582,3.614,3.615,3.614h9.489c7.116,0,12.99-5.874,12.99-13.104v-5.422c0-3.728-1.468-7.116-4.066-9.489
	c2.598-2.371,4.066-5.647,4.066-9.375v-5.422C134.126,263.599,128.252,257.726,121.136,257.726z M126.896,300.537
	c0,3.163-2.598,5.761-5.761,5.761h-5.874v-17.057h5.874c3.163,0,5.761,2.598,5.761,5.874V300.537z M126.896,276.251
	c0,3.162-2.598,5.761-5.761,5.761h-5.874v-17.058h5.874c3.163,0,5.761,2.599,5.761,5.875V276.251z M156.603,257.726
	c-7.229,0-13.104,5.873-13.104,12.99v29.821c0,7.229,5.874,13.104,13.104,13.104c7.117,0,12.99-5.874,12.99-13.104v-29.821
	C169.593,263.599,163.72,257.726,156.603,257.726z M162.364,300.537c0,3.276-2.598,5.874-5.761,5.874
	c-3.276,0-5.874-2.598-5.874-5.874v-29.821c0-3.163,2.598-5.762,5.874-5.762c3.163,0,5.761,2.599,5.761,5.762V300.537z
	 M205.061,259.532v41.005c0,7.229-5.874,13.104-12.99,13.104c-7.229,0-13.104-5.874-13.104-13.104v-41.005
	c0-1.017,0.904-1.807,1.807-1.807h3.615c1.017,0,1.808,0.79,1.808,1.807v41.005c0,3.276,2.598,5.874,5.874,5.874
	c3.163,0,5.761-2.598,5.761-5.874v-41.005c0-1.017,0.791-1.807,1.808-1.807h3.615C204.271,257.726,205.061,258.516,205.061,259.532z
	 M234.316,259.532v3.615c0,1.016-0.791,1.807-1.807,1.807h-5.083v46.879c0,0.904-0.791,1.808-1.808,1.808h-3.615
	c-1.017,0-1.807-0.903-1.807-1.808v-46.879h-5.083c-1.017,0-1.807-0.791-1.807-1.807v-3.615c0-1.017,0.791-1.807,1.807-1.807h17.396
	C233.525,257.726,234.316,258.516,234.316,259.532z M277.689,259.532v3.615c0,1.016-0.791,1.807-1.807,1.807h-9.828v17.058h9.828
	c1.016,0,1.807,0.79,1.807,1.808v3.614c0,1.017-0.791,1.808-1.807,1.808h-9.828v17.17h9.828c1.016,0,1.807,0.791,1.807,1.808v3.614
	c0,1.018-0.791,1.808-1.807,1.808h-13.443c-2.033,0-3.614-1.694-3.614-3.614V261.34c0-2.033,1.581-3.614,3.614-3.614h13.443
	C276.898,257.726,277.689,258.516,277.689,259.532z M332.023,270.716v41.117c0,0.904-0.791,1.808-1.809,1.808h-3.614
	c-1.017,0-1.808-0.903-1.808-1.808v-41.117c0-3.163-2.598-5.762-5.873-5.762c-3.164,0-5.762,2.599-5.762,5.762v41.117
	c0,0.904-0.791,1.808-1.807,1.808h-3.615c-1.017,0-1.808-0.903-1.808-1.808v-41.117c0-3.163-2.599-5.762-5.761-5.762
	c-3.275,0-5.874,2.599-5.874,5.762v41.117c0,0.904-0.79,1.808-1.808,1.808h-3.615c-0.902,0-1.807-0.903-1.807-1.808v-41.117
	c0-7.117,5.874-12.99,13.104-12.99c3.615,0,7.004,1.581,9.375,4.066c2.373-2.485,5.762-4.066,9.377-4.066
	C326.148,257.726,332.023,263.599,332.023,270.716z M354.498,257.726h-9.488c-1.921,0-3.615,1.581-3.615,3.614v48.687
	c0,1.92,1.694,3.614,3.615,3.614h9.488c7.229,0,12.99-5.874,12.99-13.104v-29.708C367.488,263.599,361.728,257.726,354.498,257.726z
	 M360.259,300.537c0,3.163-2.599,5.761-5.761,5.761h-5.874v-41.344h5.874c3.162,0,5.761,2.599,5.761,5.875V300.537z
	 M402.278,270.716c0-7.117-5.761-12.99-12.99-12.99h-9.376c-2.033,0-3.615,1.581-3.615,3.614v50.493
	c0,0.904,0.791,1.808,1.809,1.808h3.614c0.903,0,1.808-0.903,1.808-1.808v-22.592h5.761c3.163,0,5.761,2.598,5.761,5.761v16.831
	c0,0.904,0.791,1.808,1.808,1.808h3.614c1.018,0,1.808-0.903,1.808-1.808v-16.831c0-3.728-1.468-7.003-3.954-9.376
	c2.486-2.371,3.954-5.761,3.954-9.488V270.716z M395.049,276.138c0,3.275-2.598,5.874-5.761,5.874h-5.761v-17.058h5.761
	c3.163,0,5.761,2.599,5.761,5.762V276.138z"/>
</svg>