<?xml version="1.0" encoding="utf-8"?>
<!-- Generator: Adobe Illustrator 16.0.3, SVG Export Plug-In . SVG Version: 6.00 Build 0)  -->
<!DOCTYPE svg PUBLIC "-//W3C//DTD SVG 1.1//EN" "http://www.w3.org/Graphics/SVG/1.1/DTD/svg11.dtd">
<svg version="1.1" id="Layer_1" xmlns="http://www.w3.org/2000/svg" xmlns:xlink="http://www.w3.org/1999/xlink" x="0px" y="0px"
	 width="350px" height="350px" viewBox="0 0 350 350" enable-background="new 0 0 350 350" xml:space="preserve">
<path fill="#ffd800" d="M179.437,321.535l-1.775,15.974c-1.75,0.161-3.779,0.252-6.073,0.252c-5.988,0-10.179-0.667-12.256-1.214l-3.361-15.896
	c4.963,0.852,10.556,1.121,15.617,1.121C174.119,321.772,176.786,321.708,179.437,321.535z M180.966,321.418l-1.77,15.941
	c0.485-0.052,0.945-0.119,1.381-0.178l1.764-15.89C181.885,321.339,181.426,321.377,180.966,321.418z M182.119,336.924
	c0.678-0.126,1.258-0.257,1.726-0.377l3.357-15.896c-1.082,0.185-2.196,0.343-3.325,0.478L182.119,336.924z M181.987,305.982
	c3.457,0.357,6.452,0.893,8.734,1.551c0.351-3.317,1.321-7.84,3.753-12.941c-2.911,0.699-6.277,1.2-9.712,1.542
	C182.411,300.004,181.938,303.569,181.987,305.982z M191.854,283.468l-1.123,4.201c0.629-0.12,1.199-0.243,1.743-0.369l1.094-4.095
	C193.006,283.299,192.433,283.384,191.854,283.468z M188.369,283.91l-1.158,4.332c0.658-0.091,1.29-0.185,1.884-0.284l1.141-4.271
	C189.624,283.767,189.001,283.846,188.369,283.91z M158.721,296.166c-3.408-0.336-6.772-0.816-9.691-1.495
	c2.381,5.028,3.349,9.492,3.703,12.783c2.311-0.641,5.306-1.152,8.746-1.504C161.523,303.543,161.046,300.01,158.721,296.166z
	 M48.15,152.249c-0.907-6.764-3.101-28.87,2.673-53.535c4.563-19.487,14.895-43.459,37.926-61.757
	c-29.754,19.012-48.813,48.019-48.813,80.488c0,12.995,1.381,24.707,3.82,35.344L48.15,152.249z M299.04,120.445l4.15-0.528
	c0.012-0.827,0.044-1.634,0.044-2.472c0-39.731-28.517-74.305-70.27-91.71C293.689,63.878,298.715,109.976,299.04,120.445z
	 M185.6,288.452l1.167-4.37c-4.618,0.463-9.755,0.72-15.178,0.72c-10.308,0-19.586-0.924-26.208-2.401
	c0.55,1.226,1.056,2.466,1.451,3.732c2.843,1.258,11.613,3.112,24.758,3.112C177.059,289.245,181.756,288.921,185.6,288.452z
	 M162.316,296.455c1.729,3.555,2.176,6.813,2.17,9.244c2.247-0.144,4.627-0.229,7.102-0.229c2.58,0,5.06,0.091,7.392,0.248
	c-0.009-2.439,0.438-5.715,2.185-9.281c-3.404,0.237-6.73,0.337-9.577,0.337C168.824,296.774,165.609,296.681,162.316,296.455z
	 M153.897,314.067c4.376,1.026,10.677,1.679,17.691,1.679c7.011,0,13.312-0.652,17.688-1.679c-3.024-0.819-9.319-2.571-17.688-2.571
	C163.214,311.496,156.922,313.248,153.897,314.067z M194.141,286.885c0.934-0.264,1.67-0.521,2.203-0.752
	c0.395-1.267,0.9-2.507,1.45-3.738c-0.824,0.185-1.69,0.363-2.595,0.526L194.141,286.885z M114.859,167.828
	c-0.351-2.73-3.177-4.655-6.277-4.266c-3.211,0.41-5.464,2.98-5.119,5.709l3.267,25.783c0.354,2.829,3.186,4.753,6.395,4.353
	c3.098-0.395,5.355-2.96,4.999-5.795L114.859,167.828z M334.539,195.458l-43.467,5.512c-15.521,24.138-36.122,41.135-52.739,54.856
	c-15.015,12.382-27.999,23.094-31.261,33.945c-0.4,2.718-2.372,4.917-5.867,6.553c-2.112,4.083-3.095,7.748-3.531,10.568
	c1.275,1.293,1.604,2.658,1.604,3.721v0.395l-6.245,29.517c-0.644,5.813-11.932,7.053-21.444,7.053
	c-9.515,0-20.803-1.24-21.453-7.053l-6.239-29.517v-0.395c0-1.136,0.372-2.598,1.846-3.952c-0.444-2.735-1.404-6.263-3.393-10.153
	c-3.732-1.658-5.83-3.922-6.245-6.736c-3.262-10.846-16.243-21.558-31.255-33.945c-9.53-7.865-20.265-16.731-30.649-27.379
	l-48.346,6.125l6.734-42.516l-17.126-39.502l16.307-2.066c-2.094-10.548-3.153-21.644-3.153-33.043
	c0-63.425,64.136-115.023,142.972-115.023c77.678,0,141.088,50.093,142.928,112.24l9.626-1.22l-6.728,42.519L334.539,195.458z
	 M329.054,192.334l-15.552-35.875l6.11-38.625l-8.875,1.128c0.015-0.505,0.032-1.002,0.032-1.517
	c0-61.334-62.436-111.232-139.181-111.232c-76.745,0-139.181,49.897-139.181,111.232c0,13.284,1.434,25.306,3.929,36.287
	l-15.389,1.948l15.562,35.876l-6.116,38.625l45.219-5.727c10.563,11.021,21.681,20.221,31.644,28.443
	c15.628,12.888,29.131,24.029,32.574,36.109c0.158,1.91,2.17,3.382,5.218,4.502c3.358,6.046,4.44,11.458,4.744,14.991
	c-1.348,0.646-2.103,1.36-2.103,2.112l0.1,0.468l0.12,0.564l0.333,1.591l5.657,26.753c0,2.104,7.921,3.803,17.691,3.803
	c9.767,0,17.688-1.699,17.688-3.803l6.11-28.908l0.1-0.468c0-0.699-0.652-1.372-1.834-1.98c0.292-3.545,1.366-9.065,4.847-15.27
	c2.835-1.1,4.698-2.529,4.85-4.355c3.443-12.08,16.942-23.222,32.571-36.109c17.129-14.14,37.672-31.135,52.908-55.463
	L329.054,192.334z M320.332,187.361l-29.433,3.732l-7.415,0.942l-19.762,2.507c-0.816,2.155-1.65,4.285-2.51,6.389l17.998-2.282
	c-14.009,20.317-32.026,35.187-48.086,48.439c-13.376,11.03-25.275,20.861-31.535,31.767c-1.377,0.374-2.986,0.743-4.855,1.094
	c9.243-10.793,31.349-38.839,46.72-76.514l-3.44,0.436c-16.734,40.24-41.038,69.102-47.903,76.795
	c-0.761,0.1-1.554,0.193-2.361,0.283l-0.137-0.031l-0.015,0.052c-1.557,0.173-3.194,0.331-4.97,0.448
	c8.213-25.381,13.511-49.691,16.649-72.642l-3.095,0.395c-3.183,22.877-8.526,47.114-16.79,72.419
	c-2.457,0.117-5.014,0.199-7.804,0.199c-2.793,0-5.359-0.082-7.816-0.199c-7.529-23.055-12.636-45.23-15.895-66.3l-2.975,0.381
	c3.224,20.905,8.252,42.891,15.646,65.747c-2.598-0.179-4.94-0.422-7.102-0.699c-5.42-6.017-24.706-28.54-40.805-60.959
	l-3.147,0.396c14.52,29.525,31.746,51.065,39.342,59.873c-2.047-0.368-3.776-0.767-5.253-1.173
	c-6.256-10.899-18.156-20.73-31.532-31.772c-8.781-7.242-18.141-14.977-27.115-23.815l8.734-0.998
	c-1.808-2.114-5.821-5.364-5.821-5.364l-8.208,0.956l-7.249,0.916l-34.796,4.417l0.31-1.945l48.117-6.037l-0.187-1.498
	l-47.685,5.984l4.306-27.2l0.275-1.729l-0.696-1.608l-10.94-25.223l32.796-4.114l-0.188-1.496L30.474,162.5l-0.799-1.852l9.641-1.22
	l5.92-0.751l19.253-2.381c1.214-2.056,2.129-3.507,3.428-6.494l-18.276,2.261c-0.889-6.618-3.083-28.524,2.65-53.005
	c5.359-22.897,18.793-52.069,51.856-70.589c12.894-6.077,27.206-10.47,42.446-12.789c1.217-0.076,1.015,0.417,0.462,0.954
	c-0.515,0.394-1.009,0.774-1.506,1.157c-0.047,0.032-0.082,0.054-0.082,0.054s0.018-0.006,0.023-0.007
	c-14.897,11.509-21.762,19.44-21.762,19.44l0.023-0.013c-19.633,18.969-37.897,47.648-37.897,88.758
	c0,7.222,0.45,14.323,1.275,21.274l2.995-0.381c-0.807-6.83-1.255-13.799-1.255-20.893c0-62.263,42.99-95.382,67.227-109.105
	c0.79-0.446,1.521-0.842,2.27-1.246c1.492-0.744,5.049-2.235,4.191,0.983c-2.832,10.565-10.96,41.232-13.675,55.281l0.029-0.034
	c-4.206,19.345-7.599,42.482-8.512,68.641l3.007-0.379c1.117-31.446,5.874-58.447,11.25-79.664
	c0.19-0.591,14.83-45.658,17.074-45.658c2.229,0,16.372,44.338,16.781,45.627c4.973,19.605,9.41,44.157,10.94,72.594l2.966-0.379
	c-1.255-22.948-4.385-43.397-8.167-60.783l0.035,0.034c-2.615-13.548-10.407-43.139-13.552-54.918
	c-1.042-3.927,4.615-1.201,4.946-1.037c23.862,13.088,68.921,46.243,68.921,110.043c0,0.016,0,0.032,0,0.053l3.001-0.383
	c-0.103-42.459-19.697-71.615-40.092-90.493c-2.942-3.042-9.334-9.229-19.536-17.134c0.006,0,0.023,0.007,0.023,0.007
	s-0.062-0.042-0.152-0.108c-0.248-0.193-0.5-0.385-0.752-0.579c-0.909-0.752-1.938-1.834-0.125-1.698
	c9.731,1.503,19.083,3.86,27.923,6.955c67.432,38.784,72.378,87.825,72.649,97.994l-25.79,3.284c0,0.111-1.281,4.331-1.346,6.244
	l32.6-4.148l6.041-0.765l3.36-0.429l-0.377,2.36l-42.464,5.327l0.188,1.498l42.033-5.275l-4.238,26.788l-0.274,1.727l0.695,1.607
	l11.104,25.606l-53.617,6.733l0.188,1.489l54.053-6.777L320.332,187.361z M90.494,197.31l-1.857-14.648
	c-0.114-0.878-0.974-1.463-1.969-1.337l-9.179,1.158c-1,0.126-1.685,0.91-1.574,1.787l0.398,3.133
	c0.096,0.778,0.959,1.363,1.957,1.237l3.87-0.494l1.272,10.063c0.345,2.735-1.913,5.3-5.011,5.701
	c-3.101,0.389-5.926-1.536-6.271-4.271l-3.282-25.883c-0.357-2.83,1.913-5.302,5.01-5.691c3.098-0.396,5.917,1.431,6.274,4.268
	l0.421,3.315c0.111,0.876,0.971,1.464,1.966,1.338l3.542-0.447c0.995-0.126,1.682-0.911,1.577-1.787l-0.427-3.323
	c-0.787-6.248-7.175-10.498-14.146-9.617c-6.967,0.883-12.089,6.596-11.296,12.848l3.282,25.874
	c0.778,6.16,7.161,10.41,14.128,9.521C86.153,209.171,91.271,203.467,90.494,197.31z M125.208,192.715l-3.271-25.783
	c-0.778-6.151-7.178-10.502-14.146-9.619c-7.082,0.896-12.192,6.704-11.408,12.858l3.264,25.782
	c0.79,6.251,7.187,10.601,14.269,9.705C120.885,204.774,125.992,198.966,125.208,192.715z M146.438,157.181l-0.395-3.125
	c-0.114-0.884-0.974-1.467-1.969-1.343l-17.039,2.16c-0.992,0.129-1.682,0.91-1.571,1.786l0.398,3.125
	c0.111,0.88,0.971,1.467,1.965,1.338l4.976-0.626l5.14,40.525c0.093,0.784,0.971,1.466,1.965,1.34l3.542-0.45
	c0.998-0.123,1.67-1,1.571-1.784l-5.134-40.534l4.976-0.626C145.859,158.841,146.55,158.057,146.438,157.181z M195.524,150.667
	l-0.395-3.125c-0.111-0.881-0.972-1.464-1.963-1.338l-17.039,2.159c-0.994,0.128-1.685,0.907-1.579,1.787l0.397,3.128
	c0.111,0.876,0.977,1.464,1.972,1.335l4.979-0.63l5.134,40.525c0.099,0.787,0.971,1.472,1.968,1.346l3.546-0.447
	c0.991-0.126,1.667-1.004,1.567-1.794l-5.137-40.526l4.979-0.633C194.945,152.328,195.639,151.543,195.524,150.667z
	 M234.378,188.509l-5.733-45.213c-0.11-0.88-0.965-1.467-1.962-1.341l-3.54,0.452c-0.886,0.111-1.688,0.902-1.573,1.786
	l2.463,19.436l-11.285,1.427l-2.463-19.433c-0.108-0.883-0.971-1.462-1.966-1.338l-3.542,0.449
	c-0.997,0.124-1.682,0.907-1.567,1.786l5.729,45.213c0.111,0.883,0.963,1.471,1.963,1.345l3.542-0.447
	c0.995-0.126,1.683-0.915,1.574-1.793l-2.48-19.528l11.288-1.43l2.472,19.533c0.11,0.878,1.088,1.451,1.968,1.34l3.543-0.45
	C233.805,190.179,234.489,189.392,234.378,188.509z M250.642,186.452l-5.73-45.22c-0.111-0.88-1.082-1.451-1.966-1.338l-3.542,0.452
	c-0.994,0.124-1.688,0.907-1.573,1.783l5.727,45.222c0.114,0.883,0.978,1.462,1.969,1.342l3.539-0.453
	C250.06,188.113,250.75,187.33,250.642,186.452z M271.629,185.385c6.974-0.884,12.078-6.699,11.3-12.849
	c-0.396-3.127-0.396-3.127-3.443-5.909l-17.655-16.026c-0.383-0.35-0.383-0.35-0.541-1.616c-0.349-2.735,1.913-5.306,5.011-5.695
	c3.098-0.396,5.926,1.528,6.274,4.265l0.424,3.32c0.108,0.88,0.962,1.467,1.963,1.335l3.542-0.449
	c0.994-0.126,1.682-0.907,1.573-1.787l-0.424-3.319c-0.781-6.154-7.175-10.502-14.148-9.616
	c-6.968,0.881-12.078,6.688-11.297,12.843c0.396,3.125,0.396,3.125,3.449,5.915l17.652,16.022c0.384,0.35,0.384,0.35,0.541,1.615
	c0.352,2.736-1.91,5.306-5.008,5.695c-3.098,0.395-5.929-1.528-6.279-4.264l-0.419-3.317c-0.111-0.885-0.968-1.465-1.966-1.34
	l-3.542,0.448c-0.991,0.126-1.682,0.905-1.57,1.789l0.421,3.317C258.268,181.915,264.664,186.262,271.629,185.385z"/>
</svg>