<svg width="70%" viewBox="0 0 200 200" >
    <path d="M167.97,31.787l6.168-7.572c1.425-1.751,0.845-4.583-1.296-6.328l-6.396-5.209
        c-2.141-1.744-5.033-1.739-6.459,0.012l-6.1,7.49C138.508,9.778,119.964,3.702,100,3.702S61.492,9.778,46.113,20.18l-6.1-7.49
        c-1.425-1.751-4.318-1.756-6.458-0.012l-6.397,5.209c-2.141,1.744-2.721,4.577-1.295,6.328l6.167,7.572
        C14.532,49.224,3.702,73.347,3.702,100c0,53.184,43.114,96.298,96.298,96.298s96.298-43.114,96.298-96.298
        C196.298,73.347,185.468,49.223,167.97,31.787z M100,186.298c-47.585,0-86.298-38.713-86.298-86.298S52.415,13.702,100,13.702
        S186.298,52.415,186.298,100S147.585,186.298,100,186.298z"/>
    <path display="inline" d="M105,97.929V41.765c0-2.761-2.238-5-5-5c-2.761,0-5,2.239-5,5v58.233c0,0.329,0.034,0.657,0.099,0.981
        c0.029,0.146,0.084,0.281,0.125,0.422c0.05,0.172,0.09,0.345,0.159,0.511c0.069,0.167,0.164,0.318,0.25,0.476
        c0.07,0.129,0.126,0.262,0.208,0.385c0.184,0.275,0.392,0.532,0.625,0.765l45.918,45.13c0.976,0.977,2.256,1.465,3.535,1.465
        s2.56-0.488,3.535-1.465c1.953-1.952,1.953-5.118,0-7.07L105,97.929z"/>
    <path display="inline" d="M27,97.5h-8.667c-1.381,0-2.5,1.119-2.5,2.5s1.119,2.5,2.5,2.5H27c1.381,0,2.5-1.119,2.5-2.5
        S28.381,97.5,27,97.5z"/>
    <path display="inline" d="M100,29.5c1.381,0,2.5-1.119,2.5-2.5v-8.667c0-1.381-1.119-2.5-2.5-2.5s-2.5,1.119-2.5,2.5V27
        C97.5,28.381,98.619,29.5,100,29.5z"/>
    <path display="inline" d="M181.666,97.5H173c-1.381,0-2.5,1.119-2.5,2.5s1.119,2.5,2.5,2.5h8.666c1.381,0,2.5-1.119,2.5-2.5
        S183.047,97.5,181.666,97.5z"/>
    <path display="inline" d="M100,170.5c-1.381,0-2.5,1.119-2.5,2.5v8.666c0,1.381,1.119,2.5,2.5,2.5s2.5-1.119,2.5-2.5V173
        C102.5,171.619,101.381,170.5,100,170.5z"/>
 </svg>