<?xml version="1.0" encoding="utf-8"?>
<!-- Generator: Adobe Illustrator 22.1.0, SVG Export Plug-In . SVG Version: 6.00 Build 0)  -->
<svg version="1.1" xmlns="http://www.w3.org/2000/svg" xmlns:xlink="http://www.w3.org/1999/xlink" x="0px" y="0px"
	 viewBox="0 0 800 600" style="enable-background:new 0 0 800 600;" xml:space="preserve">
<style type="text/css">
	.st0{fill:#9A1626;}
	.st1{fill:url(#SVGID_1_);}
	.st2{fill:#EBAA37;}
	.st3{fill:#EFB750;}
	.st4{fill:#E28430;}
	.st5{fill:#E67B2C;}
	.st6{fill:url(#Brown_Hill_2_);}
	.st7{fill:url(#SVGID_2_);}
	.st8{opacity:0.146;fill:#C33903;}
	.st9{fill:#5E031A;}
</style>
<g id="sky">
	<rect y="0" class="st0" width="800" height="600"/>
	
		<radialGradient id="SVGID_1_" cx="8.2102" cy="464.5123" r="439.9919" gradientTransform="matrix(1.7058 0 0 1.1204 179.5165 -49.3796)" gradientUnits="userSpaceOnUse">
		<stop  offset="1.219512e-02" style="stop-color:#E9A22F"/>
		<stop  offset="0.1988" style="stop-color:#E79E2F"/>
		<stop  offset="0.3647" style="stop-color:#E1942E"/>
		<stop  offset="0.5226" style="stop-color:#D7812D"/>
		<stop  offset="0.6757" style="stop-color:#C8682B"/>
		<stop  offset="0.8252" style="stop-color:#B64729"/>
		<stop  offset="0.9703" style="stop-color:#9F1F27"/>
		<stop  offset="1" style="stop-color:#9A1626"/>
	</radialGradient>
	<ellipse class="st1" cx="193.5" cy="471" rx="750.5" ry="493"/>
</g>
<g id="Layer_7">
	<circle class="st2" cx="192.4" cy="470.3" r="37.5"/>
	<circle class="st3" cx="192.4" cy="470.3" r="20.5"/>
</g>
<g id="barn_trees">
	<path class="st4" d="M33.2,502.6c-0.2-0.1-0.5-0.2-0.7-0.3c0.2-0.2,0.3-0.4,0.5-0.6c0.2-0.3-0.1-0.7-0.4-0.6
		c-0.5,0.2-0.8,0.1-1.1-0.3c0.4-0.3,0.8-0.6,1.2-0.9c0.3-0.3,0-0.7-0.4-0.6c-0.5,0.1-1,0.1-1.4-0.1c0.6-0.1,1.2-0.3,1.8-0.7
		c0.3-0.2,0.2-0.7-0.2-0.7c-0.3,0-0.7,0-0.9-0.1c0.4-0.1,0.6-0.3,0.8-0.8c0.1-0.3-0.2-0.6-0.5-0.5c-0.3,0.1-0.6,0.2-0.9,0.2
		c-0.1,0-0.1-0.1-0.2-0.1c-0.2,0-0.4,0-0.6,0.1c0.3-0.2,0.5-0.4,0.6-0.5c0.3-0.2,0.8-0.2,1.1-0.4c0.3-0.2,0.5-0.4,0.8-0.6
		c0,0,0.1-0.1,0.1-0.2c0.3-0.4-0.2-0.9-0.5-0.5c-0.1,0.2-0.3,0.3-0.4,0.4c-0.2,0.1-0.5,0.1-0.7-0.1c0.1-0.1,0.1-0.1,0.2-0.2
		c0.2-0.2,0.1-0.7-0.3-0.7c-0.3-0.1-0.6,0-0.8,0.3c0.2-0.4,0.5-0.6,0.9-0.9c0.3-0.2,0.1-0.9-0.3-0.7c-0.3,0.1-0.5,0.2-0.7,0.2
		c0.1-0.1,0.3-0.3,0.5-0.4c0.3-0.3,0-0.8-0.4-0.6c-0.2,0-0.3,0.1-0.5,0.1c-0.6,0.2-0.7,0.2-0.4-0.1c0-0.1,0.3-0.4,0.5-0.5l0.1,0
		c0.4,0.2,0.8-0.3,0.5-0.6c0,0-0.1,0-0.1-0.1c0,0,0,0,0,0c0,0,0,0,0,0c-0.2-0.1-0.3-0.2-0.5-0.3c0,0,0,0,0,0
		c-0.1-0.1-0.3-0.1-0.5-0.1c-0.1-0.3-0.4-0.3-0.8-0.4c0-0.1,0-0.1,0-0.2c0-0.2-0.1-0.3-0.3-0.4c-0.7-0.1-0.4-0.7-0.8-1.1
		c-0.1-0.3-0.4-0.5-0.6-0.2c-0.3,0.3-0.3,0.5-0.3,0.7c-0.2-0.1-0.4-0.2-0.7-0.3c-0.4-0.1-0.7,0.4-0.4,0.6c0.1,0.1,0.2,0.2,0.3,0.3
		l-0.1,0.1c-0.1,0-0.2,0-0.3,0.1c-0.3-0.1-0.5-0.1-0.8-0.2c-0.4-0.1-0.6,0.4-0.4,0.6c-0.4-0.2-0.8,0.3-0.4,0.6
		c0.1,0.1,0.2,0.1,0.3,0.2l-0.3,0.2c0,0-0.1,0-0.1-0.1c-0.4-0.2-0.7,0.2-0.5,0.5l-0.2,0.2c0,0,0,0.1,0,0.1c0,0.3,0.1,0.6-0.2,0.7
		c-0.1,0-0.2,0-0.3,0c0,0.1-0.2,0.2-0.3,0.1c-0.2-0.1-0.1,0-0.1,0.1c0,0.1,0,0.1,0,0.2c0,0.1-0.1,0.3-0.3,0.2
		c-0.2-0.1-0.3-0.1-0.4-0.2l-0.1,0.1c0,0.1,0,0.2,0,0.3c0,0,0.1,0.1,0.1,0.1c0.2,0.2,0,0.6-0.2,0.4c-0.1-0.1-0.3-0.2-0.4-0.3
		c0,0,0,0-0.1-0.1l-0.4,0.3c-0.1,0-0.1-0.1-0.2-0.1c-0.2,0-0.3,0-0.4,0.2c-0.1,0.2-0.1,0.4-0.2,0.6l-0.2,0.2
		c-0.1-0.3-0.2-0.6-0.3-0.9c-0.2-0.3-0.7-0.2-0.7,0.2c0,0.1,0,0.1,0,0.2c-0.2-0.1-0.6,0-0.5,0.3c0,0.4,0,0.9,0.1,1.4l-0.2,0.2
		c-0.1-0.1-0.2-0.3-0.2-0.4c-0.1-0.2-0.3-0.5-0.4-0.7c-0.3-0.4-0.9,0-0.7,0.4l0.7,1.2l-0.3,0.3c-0.1,0-0.3-0.1-0.4-0.1
		c-0.2,0-0.4,0.2-0.4,0.4c0,0,0,0,0,0c0,0,0,0.1,0,0.1c0,0-0.1,0-0.1,0c-0.4-0.1-0.7,0.5-0.3,0.7c0.1,0.1,0.2,0.1,0.3,0.2
		c-0.1,0-0.2,0-0.4,0.1c-0.4,0.1-0.3,0.6,0,0.7c-0.1,0.2-0.1,0.5,0.2,0.6c0,0,0,0,0,0c-0.2,0.2-0.1,0.4,0,0.6c0,0.2,0.1,0.4,0.4,0.4
		c0,0,0.1,0,0.1,0c-0.4,0.2-0.9,0.2-1.4,0.2c-0.4,0-0.5,0.6-0.1,0.8c0.5,0.1,1,0.2,1.4,0.2c-0.2,0.2-0.2,0.6,0.1,0.7
		c0.2,0,0.4,0,0.6,0c0,0.1,0.1,0.1,0.2,0.2c0,0.2,0.1,0.3,0.4,0.3c0,0,0,0,0,0c0,0,0.1,0.1,0.1,0.1c0.1,0.1,0.2,0.1,0.3,0.1
		c-0.1,0.5-0.2,1-0.3,1.5c0,0.4,0.6,0.5,0.8,0.1c0.1-0.3,0.1-0.7,0.2-1.1c0,0,0.1,0.1,0.1,0.1c0.2,0.3,0.8,0,0.6-0.4c0,0,0,0,0,0
		c0.1,0,0.1,0,0.2-0.1c0,0,0.1,0,0.1,0c0.1,0,0.3,0,0.3-0.1c0.4,0.3,0.8,0.6,1.3,0.8c0.3,0.1,0.5-0.1,0.6-0.3
		c0.7-0.1,1.5-0.2,2.2-0.2c0,0,0,0,0,0c0.2,0,0.4-0.1,0.6-0.1c0.2,0,0.3-0.2,0.3-0.4c0.1,0,0.3-0.1,0.4-0.1c0.2,0,0.4,0,0.6,0l0,0.2
		c-0.1,0.2-0.2,0.3-0.3,0.5c-0.3,0.4,0.2,0.9,0.5,0.5c0,0,0-0.1,0.1-0.1c0.2,0.2,0.6,0.2,0.7-0.1c0,0,0,0,0-0.1c0,0,0,0,0,0
		c0,0,0,0,0-0.1c0-0.1,0-0.3,0-0.3c0,0,0,0,0,0c0,0,0-0.1,0-0.1c0,0,0.1,0,0.2,0c0.2,0,0.5,0,0.7,0.1c0.8,0.1,1.7,0.2,2.5,0.3
		c1.2,0.1,2.3,0,3.2-0.9C33.5,503.1,33.5,502.7,33.2,502.6z M21.4,503.6c0,0-0.1-0.1-0.1-0.1C21.3,503.5,21.3,503.5,21.4,503.6
		C21.4,503.5,21.4,503.6,21.4,503.6z"/>
	<path class="st4" d="M25.8,489.4L25.8,489.4C25.8,489.4,25.8,489.4,25.8,489.4C25.8,489.4,25.8,489.4,25.8,489.4z"/>
</g>
<g id="House">
	<polygon class="st5" points="25.5,506.6 25.5,497.9 61.7,490.8 100.8,498.7 100.8,514 	"/>
</g>
<g id="hills">
	<linearGradient id="Brown_Hill_2_" gradientUnits="userSpaceOnUse" x1="135.8057" y1="633.1447" x2="150.295" y2="515.1385">
		<stop  offset="1.219512e-02" style="stop-color:#CA5C17"/>
		<stop  offset="0.8244" style="stop-color:#BE5A19"/>
	</linearGradient>
	<path id="Brown_Hill_1_" class="st6" d="M-84,501.3c0,0,10.1,2.5,29.6,3.4s66.8-0.4,103.2,0s200,23.7,225.8,28.7
		c25.8,5.1,74.4,14.8,100.6,9.3v63.4H-84V501.3z"/>
	<linearGradient id="SVGID_2_" gradientUnits="userSpaceOnUse" x1="457.7367" y1="519.2494" x2="484.41" y2="670.5211">
		<stop  offset="0" style="stop-color:#BC3700"/>
		<stop  offset="0.5491" style="stop-color:#AA3800"/>
		<stop  offset="1" style="stop-color:#983A00"/>
	</linearGradient>
	<path class="st7" d="M72,606.2c-11.6,0,138.2-41.9,150.9-41.9c34.9-13.2,91.8-18.1,154.7-27.9c-4.8,1.7,194.4-20.2,195.7-19.4
		c0,0,225.4-38.6,225.8-40.2c0,0,45.8-18.1,49.9-16.5l0.4,145.9H72z"/>
</g>

<g id="tree">
	<path class="st9" d="M636.1,615.4c2.3-2.8,5.7-4,8.7-5.7c2.9-1.6,4.3-3.2,4.5-6.8c0.3-6.7,1.3-13.4,2.9-20
		c1.4-5.7,3.2-11.1,5.9-16.3c0.9-1.8,2.1-3.4,3.3-5c1.7-2.4,2-4.7,0.5-7.1c-0.7-1.1-1.2-2.3-0.6-3.5c0.6-1.3,2-0.7,2.9-0.6
		c3.8,0.6,6.4-1.5,8.3-4.1c4.4-6,6.6-13.1,8.3-20.3c1.2-5.3,2.2-10.7,3-16.1c1.7-10.1,1.5-20.4,1.6-30.5c0-3.6-0.4-7.7-2.3-11.3
		c-1.4-2.6-1.8-5.8-2-8.9c-0.6-8.3,1.2-16.4,2.5-24.4c1.2-7.1,2.1-14.1,2.3-21.2c0.2-5-0.3-10.1-1-15.1c-0.6-4.2-1.1-8.4-2.6-12.4
		c-1.2-3.4-2.6-6.7-4.1-10.1c-2.4-5.4-5.7-10.2-9.1-15c-5-7.3-10.9-13.8-17.8-19.4c-2.7-2.2-5.6-4.1-8.7-5.8c-1.9-1-4-1.1-6.1-1.1
		c-2.6,0-4.5-1.2-5.7-3.4c-2.3-4.1-4.9-8-9.2-10.3c-2.2-1.2-4.4-2.4-6.9-3.1c-4.6-1.2-7.6-2.9-8.4-7.9c-0.8-5-4.7-7.3-8.8-8.9
		c-6.1-2.5-12.6-3.1-19.1-2.5c-1.3,0.1-2.4,0.3-3.5,1c-7.5,4.9-15.9,5.9-24.4,4.5c-4.2-0.7-8.3-1.9-11.5-5.4
		c-3-3.3-6.9-5.6-10.2-8.7c-2.8-2.6-7-3.6-10.5-5.5c-3.5-1.9-7.1-3.3-11-3.7c-0.8-0.1-1.8,0-2.7-1.3c3.8-0.1,7.3,0.5,10.7,1.4
		c5.6,1.4,11,3.3,16.3,5.4c3.1,1.2,6.1,2.8,9,4.4c2.4,1.4,3,4.3,4.9,6.2c1.2,1.1,2.2,1.5,3.7,0.9c3-1.2,6.2-1.7,9.3-3.3
		c-4-1.6-7.3-3.7-10.2-6.5c-1.7-1.6-1.9-3.2-1.3-4.9c0.6-1.9,2.4-2.6,4.3-2.8c2.7-0.3,4.7,1.4,6.6,2.6c4.4,2.7,9.1,3.7,14,4.5
		c6.6,1.1,13.3,1.7,20,2.7c5.4,0.8,10.6,3.1,15.9,5c9.3,3.4,15.2,11,22.2,17.3c3.4,3,7.2,5.3,11.2,7.4c3,1.5,3.9,0.6,5.3-2.4
		c3.2-6.9,2.8-14.3,2.9-21.6c0.1-3.5,0.3-7.3-1.4-10.8c-1.1-2.2,0-3.4,3.4-4.4c-0.8-0.8-1.6-1.5-2.4-2.2c-4-3.7-5.6-8.1-5.6-13.6
		c0-6-0.7-12.2-2.5-17.9c-1.1-3.7-3.9-6.8-5.4-10.4c-2.2-5.2-5.6-8.6-11.1-10.6c-5.1-1.9-9.1-6.1-13.6-9.2c-0.8-0.6-1.5-0.6-2.5-0.6
		c-6.2,0.3-12.5,0.9-18.5-1.5c-1.5-0.6-2.9-1.3-4-2.5c-2.7-2.6-5.3-2.6-7.9,0c-1,1-2.1,1.6-3.5,1.6c-1.3,0-2.7,0.2-4,0
		c-3.9-0.8-6.1,1.3-8.1,4.2c-3.7,5.4-9.1,9.2-14.1,13.2c-0.8,0.7-2,0.8-3.1,0.7c-1.1-0.1-2.3-0.1-2.8-1.3c-0.6-1.2,0.4-1.9,1.1-2.7
		c3-3.4,6.5-6.3,9.8-9.6c-0.6-1.1-1.7-1.6-2.8-1.9c-1.3-0.5-2.8-0.8-3.7-2c-0.3-0.4-0.7-0.4-1.1-0.4c-6,0.8-12,0.2-18,0.4
		c-1,0-2,0.3-2.9,0.7c-3.9,1.7-7.8,3.4-11.6,5.2c-4.4,2-9.4,2.1-13.9,4.1c-2.8,1.2-5.8,1.7-8.4,3.6c-2.2,1.6-5.2,1-7.8,0.6
		c-1.2-0.2-1.7-1.1-1.7-2.4c0-1.3,0.1-2.6,1.4-3.2c1.2-0.5,1.8,0.5,2.4,1.3c1.1,1.2,2.5,0.4,3.8,0.6c0.4-1.4-0.1-1.8-1.3-2.1
		c-1.6-0.4-2.9-1.3-2.4-3.2c0.5-1.8,2.1-2.1,3.7-1.4c5,2,9.7,1.6,14.9,0.2c6.4-1.7,12-4.9,18-7.2c1.9-0.7,3.8-1.3,5.8-1.2
		c1.2,0,2.3-0.1,3.5,0c7.8,0.8,15-0.4,21.3-5.3c1.9-1.5,4.4-1.9,6.7-3.1c-6.4-6.3-11.5-13.8-20.7-16.8c-4.7-1.5-9.3-3.9-14-6
		c-10.3-4.6-20.9-6.1-32.2-4.3c-18.9,2.9-37.9,5.4-57.2,4.8c-9.3-0.3-18.6,1-27.9,1.8c-7.5,0.7-14.6,0.2-21.4-3.9
		c-8-4.8-17.1-7.5-26-10.2c-2.8-0.8-5.5-2-8.3-2.6c-7-1.5-13.7-0.3-20.4,1.8c-3.7,1.1-7.6,1.5-11.5,1.5c-2.7,0-5.7,0.9-8.1,2.3
		c-6.1,3.5-12.9,4.8-19.5,6.8c-11.3,3.4-22.5,7.1-33.8,10.4c-5.9,1.7-11.9,2.9-18,3.5c-4.7,0.4-9.3,1.8-13.7,3.7
		c-4,1.7-8.1,2.6-12.4,2.5c-1.7,0-2.9,0.6-4.1,1.8c-2.4,2.5-4.8,5.4-7.7,7c-3.2,1.7-6.9,3.5-11,1.9c-0.8,0.8,0,1.2,0.5,1.7
		c2,2.2,1.4,4.9-1.4,6c-5.8,2.3-12,2.6-17.9,1.1c-4.7-1.2-9.6-0.8-14.3-2.4c-6.5-2.2-13.4-0.6-20.1-1.6c-1.6-0.2-2.9,0.3-4.1,1.4
		c-1.5,1.3-2.7,2.9-4,4.5c-0.8-1,0.1-1.4,0.5-1.9c0.4-0.7,0.4-1.4,0.2-2.5c-4,0-8,1.1-11.9,1.2c-0.2,0.4-0.2,0.5-0.2,0.5
		c0,3.7,2,6.7,3.6,9.8c0.7,1.2,0.3,3-0.8,4.4c-2.6,3.3-5.1,6.7-7.6,10.2c-2.3-0.9-3.6-4.5-6.7-2.4c-1.6,1.1-1.3,2.7-0.7,4.3
		c-2.6,1.8-5.7,3.2-4.4,7.9c-3.4-2.3-5.3,0.9-8,1.2c-0.5-2,0-4.2-1.9-5.5c-0.7-0.5-1.5-0.7-2.4-0.6c-2.4,0.3-3.4,2.4-3.1,6.7
		c-2.8,1.8-5.7,3.6-8.2,5.9c-1.9,1.8-4.3,3.4-3.2,6.4c1.1,3,4,3.9,6.9,4c3.7,0.1,7.3,0,11.6,0c-2,6.4-6.7,10.8-8.8,17
		c-2.2-5-4.7-8.5-10.4-8.2c-2,0.1-2.7-1.4-2.7-3.3c0-1.6-0.7-3-2.4-3.4c-1.3-0.3-2.2,0.5-2.8,1.6c-0.4,0.8-0.5,1.7,0.1,2.3
		c0.9,1.1,0.4,2.1,0.4,3.3c0.2,3.7-3.4,3.8-4.9,5.9c-0.5,0.7-1.3-0.2-1.9-0.6c-1.6-1.1-3.3-1.5-5.2-0.7c-1.1,0.5-1.8,1.3-1.8,2.5
		c0,2.6-0.4,5.2,0.2,7.7c0.5,1.9-0.6,2.6-1.9,2.8c-2.6,0.4-5.2,0.4-7.6-0.9c-3.9-2.2-7.9-2.9-12.4-1.9c-3.1,0.7-6.3,0.7-9.6,0.7
		c2.7-1.5,5.4-3,8.1-4.6c1.6-1,3.3-2,4.7-3.2c2.2-1.8,2.3-3.9,0.9-6.4c-2.2-4.1-5.4-7.3-8.7-10.5c-2.8-2.8-4.8-5.9-5.6-9.7
		c-0.5-2.3-1.7-2.8-3.8-2c-3.3,1.3-6.7,2.5-10,3.8c-1.1,0.4-1.7,1.3-2.4,2.1c-1.4,1.5-2.9,1.2-3.8-0.6c-0.6-1.1-1.1-1.8-2.7-1.4
		c-2.7,0.7-3.4,0.1-3.6-2.7c-0.5-6.7-2.7-13.2-3.7-19.8c-0.5-3.1-0.1-6.2-0.2-9.2c0-2.1,1.8-1.4,3-0.9c0.9,0.4,1.5,1.8,2.8,1
		c1.5-0.9,2.9-2,3-3.8c0.1-2.3,1.5-4.4,1-6.9c-0.2-1.1,0.6-1.6,1.8-1.3c2.3,0.6,4.3,0.1,6.4-1.2c2.8-1.7,4-1.4,6.1,1.2
		c0.7,0.8,1.4,1.7,2.2,2.4c2.4,2.1,5.4,1.6,6.8-1.4c0.9-1.9,2.3-3.7,2.9-5.8c0.6-1.9,2.1-2.9,4.1-3.1c3.9-0.4,4.2-0.8,4.9-4.6
		c0.3-1.6,0.7-3.3,0.5-5c-0.2-1.3-0.9-2.3-2.4-1.9c-1.9,0.5-4,0.5-5.4,2.2c-1.1,1.4-2.3,0.6-3.1-0.5c-3.1-4.5-7.1-5-12.2-4.1
		c-4.4,0.8-8.6,2.5-13.2,2.8c-1.5,0.1-2.4,1.4-3.7,2c-2.2,1-3.5,0.4-4.1-1.9c0-0.1,0-0.2,0-0.2c-0.7-2-0.3-4.8-3.3-5.2
		c-2.5-0.3-6.7,2.4-7.3,4.8c-1.3,4.5-4.5,6.3-8.8,6.6c-1.7,0.1-3.5,0.3-5.2,0.7c-3.9,0.9-8.3-1.9-7.9-6c0.1-0.9,0-2-1.1-2.2
		c-1.1-0.2-2.1,0.4-2.8,1.4c-0.6,0.9-1,1.9-1.5,2.9c-1.7,3.6-4.7,3.4-7.9,3.1c-1.7-0.2-3.5-0.4-5.1-1c-3.2-1.2-5.3,0.2-7,2.8
		c-0.8,1.3-1.8,1.9-3.3,1.7c-1.5-0.2-2.4-0.9-2.9-2.4c-0.6-1.8-1.7-3.5-3-4.9c-1.3-1.3-1.4-3-2-4.5c-0.5-1.4,1.6-3.2,3-2.5
		c5.5,2.4,11.4,2.8,17.3,3.4c0.6,0.1,1.1,0.2,1.7,0.4c2.4,0.9,4-0.1,3.6-2.7c-0.4-2.6-0.2-5.5-2.4-7.7c-1-0.9-0.6-2.2,1-2.6
		c3.8-0.9,7.6-1.7,11.5-0.2c1.6,0.6,3.3,0.4,5,0.2c2-0.2,1.7-1.7,1.3-3.1c-0.5-1.6-1.6-2.9-1.9-4.6c-0.6-3.6-0.1-7.2,0-10.7
		c0.1-1.7,1.2-3.1,2.2-4.4c0.8-1.1,1.9-1,2.8,0c1.3,1.7,3.1,2.5,5.1,2.8c0.6,0.1,1.3,0.3,1.5,0.8c1,2.4,2.9,2.4,5,2
		c1.1-0.2,1.9,0.4,2.5,1.3c0.8,1.1,1.7,1,2.4-0.1c2-3.5,5.6-4.2,8.9-5.5c0.1-0.1,0.4,0,0.5-0.1c2.9-2.1,6-4,9.4-5.3
		c1.3-0.5,1.9-2.3,2.1-3.8c0.3-2.1,1.5-3.5,3.2-4.6c1.3-0.8,1.7-1.7,0.9-3.1c-0.7-1.3-0.3-2.8-0.3-4.2c0-1.5,1.2-1.6,2.3-1.6
		c1.3,0,2.8,0.2,2.9-1.5c0.2-1.8-1.3-2.3-2.8-2.6c-3.5-0.7-5.3,0.3-7.1,4c-0.9,2-1.8,3.9-2.7,5.9c-0.9,2-2.2,2.1-3.5,0.3
		c-0.5-0.7-0.8-1.5-1-2.3c-0.4-2-0.8-3.9-1.8-5.7c-0.4-0.8-0.6-1.8,0.1-2.6c0.7-0.8,1.7-0.4,2.3,0c2.2,1.3,3.7,0.8,5.2-1.2
		c0.7-0.9,2-1.5,3-2.2c1.1-0.8,1.7-1.4,1.7-3.1c0-2,2.4-2.7,4-3.5c3.1-1.5,6.4-2.7,7.1-7.3c3.7,1.9,7.1-0.3,10.6-0.7
		c0.8-0.1,1.7-0.2,2.5-0.1c1.2,0.1,2.6,1.3,3.5,0c1.1-1.7,2.8-3.1,2.6-5.6c-3.3-0.4-3.8-3.1-4.1-5.7c-0.3-2.8-1.1-5.4-2.2-7.9
		c-0.3-0.8-0.6-2-1.7-1.9c-1.1,0.1-1.2,1.2-1.3,2.1c-0.1,1.1-0.3,2.2-0.8,3.1c-0.5,1-1.4,1.5-2.5,1.3c-1.1-0.2-1.2-1.2-1.2-2.2
		c-0.2-4.1,0.7-7.9,2.1-11.7c0.3-0.7,0.8-1.4,0.1-2.1c-0.8-0.8-1.6-0.4-2.3,0.1c-1.6,1.2-3.7,1.2-5.4,2.4c-3.6,2.5-5.1,6-5.1,10.2
		c0.1,4.4-2.9,7.6-7.3,7.8c-1.5,0.1-2.8-0.8-3.4-2.2c-0.6-1.3,0.1-2.3,1.3-3.2c1-0.8,2.9-1.4,2.4-2.8c-0.5-1.5-2.4-1-3.8-1.2
		c-1.8-0.3-3.4,0.2-4.8,1.5c-3.3,3-5.4,6.7-6.9,10.8c-0.8,2.3-1.8,2.4-3.5,0.8c-1.9-1.8-1.5-3.9-1.5-6c0-1.1,0.8-2.7-1-3.2
		c-1.6-0.5-2.2,0.9-2.9,1.9c-1.5,2.1-2.2,4.6-2.7,6.9c-0.9,3.8-3.7,4.7-6.6,5.5c-4.5,1.4-8.7,3.7-13.2,4.8c-5.1,1.3-6.1,5.3-7.4,9.3
		c-1.4,4.1-4.6,5.2-8,2.5c-2.2-1.7-4.1-3.6-5-6.4c-1.1-3.5-0.4-5.3,3-7.1c0.3-0.1,0.5-0.4,1.1-0.8c-2-1.7-4.3-2.3-6.5-2.8
		c-1.3-0.3-2.7-0.5-4-0.2c-4.2,1.1-8.6,1.1-12.8,2.2c-3.6,0.9-7.1,1.5-10.9,1.1c-4.3-0.5-5,0.4-3.9,4.5c0.8,3,0.1,4-3,4
		c-6.6,0.1-11.3-3.9-15.7-8c-3.4-3.2-5.8-7.2-7.4-11.7c-1.1-3.2-0.7-6.4-0.2-9.6c0.2-1.2,1.3-1.6,2.3-1.2c1.9,0.7,3.8,0.5,5.7,0.5
		c0.7,0,1.7,0,2.1,0.5c2,1.9,3.5,1.5,5.8,0c3.5-2.4,7.3-4.2,11.7-4.5c2.9-0.2,5.2,0.3,6.8,3c1.8,2.9,3.2,2.6,5.9-1.3
		c-2-2.5-4.6-4.4-7-6.6c-0.5-0.5-1.2-0.5-1.9-0.2c-3.7,1.2-6.8,0.2-9.7-2.1c-5.1-4.1-9-9-12.2-14.7c-1.2-2.2-1.8-4.6-3.4-6.6
		c-0.1-0.2-0.2-0.5-0.3-0.7c-0.2-1.2-0.5-2.6,0.6-3.5c1.1-1,2,0.3,3,0.6c1.4-1,0.8-2.5,0.9-3.9c0.1-1.2-0.3-2.6,1.2-3.3
		c1.3-0.5,2.2,0.2,3.1,1c0.9,0.8,2,1.5,2.9,2.3c1.4,1.2,2.5,1.2,2.8-0.8c0.3-2,1.2-2.2,2.7-1c1.2,0.9,2.2,1.9,2.8,3.4
		c1.2,2.8,3.1,2.9,4.8,0.4c1.4-2,1.6-4.3,1.5-6.7c0-0.9-0.3-2,0.7-2.5c1.1-0.5,1.6,0.4,2.1,1.2c0.9,1.2,1.7,0.8,2.7,0
		c3.1-2.5,4.4-6.2,6.4-9.4c2.1-3.5,4-4.1,7.5-2.4c2.9,1.4,5.4,3.5,8.5,4.3c1-1,0.2-1.8-0.3-2.5c-1.5-2.1-1.9-4.4-1.8-6.9
		c0-0.9-0.1-1.8-0.3-2.7c-0.2-0.8-0.9-1.2-1.7-1.3c-0.7-0.1-1.2,0.4-1.6,1c-0.6,1.2-0.3,3.3-2.3,3.1c-2.5-0.3-5.4-0.2-7.3-2.5
		c-0.3-0.3-0.5-0.6-0.8-0.9c-4,1.5-5.6,0.5-6.6-3.9c-0.4-1.9-0.9-3.7-0.8-5.6c0.1-2,1.3-3,3.1-2.3c1.3,0.5,2.4,1.6,4,0.9
		c2.4-1.1,4.8-2.2,6.6-4.4c1.3-1.7,1.8-3,0.7-5.2c-1.9-4.1-2.5-8.4,0-12.7c-2.2-0.7-3.6,0.5-4.9,1.7C-77,1.7-80.7,2.8-85,2
		c-2-0.4-3.6-1.2-4.5-3.1c-0.3-0.6-0.5-1-1.2-1c-2.7-0.1-3.9-1.9-4.6-4.2c314.5,0,629.1,0,943.6,0c0,17,0,34,0,51.1
		c-0.9-0.4-1.8-0.7-2.9-1.2c-0.6,2.5-2.8,3.6-4.3,5.8c2.8,0.5,3.5,2.8,4.6,5.6c0.4-2.2,1.7-2,2.7-2.2c0,25,0,50.1,0,75.1
		c-1.6-0.4-2.4,1.7-4.1,1.3c-0.8-0.2-1.8,0.3-2.1-0.8c-0.3-0.8,0.2-1.4,0.9-1.8c1.1-0.7,1.3-1.6,0.5-3c-1.5,0.7-2.9,1.3-4.4,2
		c-1,0.5-1.3,1.7-1.2,2.6c0.3,3.2,1.1,6.3,3.1,9c0.5,0.7,0.8,2,2.2,1.9c1.7-2,2.7-4.7,5.1-6.1c0,6.7,0,13.3,0,20
		c-3.6,0.1-7.3,1-10.6-1.5c-0.5-0.4-1.1,0.1-1.7,0.3c-3.3,1.1-6.6,0.5-9.9,0.3c-1.2-0.1-2.3-1-3-2.1c-1.3-2.3-3.3-4.3-3.8-7.1
		c-0.3-1.9-1.1-4.2,0.5-5.7c1.6-1.5,3.6-0.7,5.2,0.5c0.9,0.7,1.9,0.4,2.9,0.4c1.5,0,2.7,0.4,3.9,1.3c1.5,1.2,3,2.5,5.6,2.5
		c-2.2-3.3-3.2-6.7-4.1-10.1c-0.8-3.1-3.1-5-5.3-6.9c-0.4-0.4-0.8-0.6-1.5-0.5c-3,0.5-6,0.2-9,0.2c-1.5,0-2.8-0.4-3.2-2.2
		c-0.3-1.3-1.2-2.1-2.8-1.9c-1.5,0.2-2.7-0.6-2.9-1.7c-0.4-2.3-1.7-4.3-1.7-6.7c-0.1-2.4-3-4.7-5.1-4.2c0.1,1.1,0.9,1.9,0.8,3.1
		c-0.1,1,0.3,2.1-1,2.5c-1.3,0.4-1.9-0.3-2.5-1.4c-0.8-1.5-1.6-3-3.2-3.9c-1.5,1.4-0.3,2.2,0.4,3.1c2.4,3.3,5.1,6.4,6.4,10.4
		c0.4,1.2,0.1,2.2-0.7,3c-0.8,0.8-2,0.7-2.8,0.3c-1.6-1-3.3-1.7-4.5-3.4c-1.9-2.8-3.3-5.7-4.6-8.7c-0.8-2-2.2-2.5-4.2-1.7
		c-2,0.9-2.4,2.1-1.4,4.1c1.2,2.3,1.4,4.9,1.8,7.4c0.4,2.2-0.6,4.1-2.4,5.4c-0.7,0.5-1.2,1.2-1,2.1c0.9,3.8,1.7,7.6,2.9,11.2
		c1.7,4.9,1.8,4.9,6.6,3c1.4-0.5,3-0.8,4.2,0.3c1.4,1.2,0.5,2.7-0.2,3.9c-1.4,2.5-0.9,4.7,0.9,6.8c1.5,1.8,2.9,3.7,4.1,5.6
		c1.5,2.4,1,3.8-1.6,4.9c-1.8,0.7-1.5,1.8-0.5,2.5c2.1,1.6,4,3.4,6.5,4.5c0.3-0.2,0.6-0.4,0.8-0.6c3-3.6,4.7-4.1,9-2.3
		c3.3,1.4,6.8,2.2,10.1,3.4c1,0.3,2.2,0.7,3.6,0.1c-2.1-3.3-2.5-6.8-2.3-10.5c0.1-1.8-0.4-4,1.8-5c2.5-1.1,3.3,1.4,4.6,2.5
		c1.8,1.6,3.1,1.6,4.3-0.5c0.8-1.4,2-2.4,3.3-2.2c2.9,0.3,4.8-1.2,6.7-2.9c0,19.4,0,38.7,0,58.1c-2.2,0.8-4.6,0.8-6.9,0.8
		c-2,0-3.6,0.8-5,2.3c-2.9,3.1-5.6,6.4-8.8,9.2c-2.3,2.1-4.5,4.3-6.1,6.9c-1.4,2.2-2.3,4.8-4.8,5.9c1.5,5.7,0.1,8.9-5.2,11.8
		c-3.9,2.1-7.9,3.8-12,5.5c-5.1,2.2-10.8,3.4-14.1,8.6c-0.2,0.3-0.7,0.5-0.9,0.8c-4,5-9.2,9.3-9.7,16.4c-0.1,1-0.5,1.9-0.7,2.9
		c-0.6,2.1-1.5,4.1,1.4,5.3c0.4,0.2,0.6,0.8,0.9,1.2c2.7,3.7,5.9,4.9,10.3,3.8c0.8-0.2,1.6-0.3,2.5-0.1c2.7,0.6,3.5,2.6,1.6,4.7
		c-1.2,1.3-2.2,2.7-2.2,4.6c0,0.7-0.4,1.4-0.9,2c-2.3,3.4-5.1,5.9-9.5,5.7c-0.3,0-0.6,0.3-0.8,0.4c-0.1,1.4,1,2,1.6,2.8
		c2.7,3.7,4.9,4.1,8.5,1.4c1.6-1.2,3.4-1.9,5.3-2c4.5-0.1,7.9-2.3,11-5.2c2.4-2.2,4.7-2.9,7.1-0.9c3.2,2.7,6.1,3,10,1.7
		c3.1-1,4.6-2.5,5.3-5.3c0.8-3.5,2-7.1,4.9-9.1c3.9-2.7,7.7-5.6,11.4-8.6c1.6-1.3,4-1.1,5.8-2c0,5.7,0,11.3,0,17
		c-2.6,0.1-5.3,4.5-4.9,8c1.6,0,3.3,0,4.9,0c0,9.2,0,18.4,0,27.5c-3.3,0-6.7-0.1-10,0c-2.3,0.1-4.4,0.7-6.2,2.3
		c-3.9,3.3-8.3,5.7-13.4,6.9c-3.9,0.9-7.8,1.6-11.3,3.7c-0.6,0.3-1.5,0.4-1.6,1.1c-0.4,3.6-2.4,6.7-3.6,10
		c-1.2,3.4-2.3,6.9-3.3,10.4c-1,3.5-1.6,7-2.7,10.5c-1.1,3.4-0.6,6.9-1.2,10.4c-1.1,6.2-2.8,12.3-3.3,18.6c-0.3,4-0.8,8-1.8,11.8
		c-3.4,12.4-5.2,25.2-9,37.5c-1.8,5.9-2.3,12.4-5,17.9c-2.3,4.8-1.2,9.2-0.3,13.7c1.3,7.2,1.4,14.1-0.9,21.1c-0.8,2.5-2.2,5-1.7,8.1
		c1.3,8.2,3.7,16,6.3,23.8c2.8,8.2,4.5,16.7,8,24.6c2.9,6.7,6.9,13,8.8,20c0.6,2.3,2.1,3,3.4,4.1c1.8,1.5,4.2,2,5.9,3.7
		c2.7,2.5,5.7,4.6,8.3,7.2c3.2,3.3,7,6.2,8.6,10.8C760.2,615.4,698.1,615.4,636.1,615.4z M720.4,200.1c-2.7-5.4-5.6-6.7-9.8-3.2
		c-0.3,0.2-0.5,0.4-0.8,0.6c-6.6,5.7-12.4,12.3-19.1,17.9c-2.5,2-3.5,5.2-3.5,8.5c0,2.8,0.7,5.4,1.7,8c0.4,1,0.1,2.7,1.8,2.5
		c1.4-0.2,2.3-1,2.4-2.8c0.3-4.9,3.4-8.6,6.2-12.3c0.9-1.2,2.3-1.3,3.6-0.4c1.3,0.9,1.2,2.1,0.5,3.3c-0.5,1-1,1.9-1.8,2.7
		c-4.1,4.6-3.2,10.3-3.2,15.7c0,0.5,0.4,1.1,0.8,1.5c1.8,2,3.8,4,6,5.7c7.4,5.8,15.7,10.2,23.7,15.2c1.8,1.1,3.3,3.1,5.7,3.2
		c0.9-1.1,1.7-2.3,3-2.7c2.6-0.9,2.3-2.7,1.6-4.6c-0.4-1-0.7-2.1-1-3.1c-0.9-3.6-1-7.4-1.1-11.1c0-0.9,0.4-1.9,1.6-2
		c1.1-0.1,1.6,0.7,1.9,1.6c0.3,1,0.5,2.1,1.5,2.8c1.5-0.6,2.8-1.5,3.9-2.7c1.3-1.5,2.6-3,4.2-4.4c1.7-1.4,3.8-3.2,3.5-5.8
		c-0.4-3.8,0.3-7.4,0.8-11.1c0.2-1.3,0.6-2.2,1.8-2.7c1.1-0.4,2-0.2,2.8,0.5c1,1,0.5,2.1,0,3.2c-1.2,2.8-2.6,5.6-2.2,8.8
		c0.3,2.8-0.6,5.1-2.7,7c-2.8,2.5-3.6,6.2-5.6,9.2c-1,1.4-1.9,3.3-1.7,5.3c0.2,1.6,0.3,3.1-1.6,4.1c-0.8,0.4-0.2,1.3,0.1,2.1
		c0.9,0.2,2,0.1,2.9,0.6c1.7,1,3.1,0.6,4.3-1c1.7-2.2,3.5-4.2,5.4-6.2c2.1-2.2,4.4-4.5,7.2-5.7c5.6-2.3,10.8-5.3,16.2-7.8
		c1.8-0.9,2.8-2,3.5-4.1c1-2.8,0.5-5.6,0.7-8.4c0.1-1.2-0.2-2.2-1.1-3.2c-1.7-1.9-2.2-4.3-1.4-6.6c1.3-3.6,1.3-7.3,1.4-11
		c0-0.6,0.3-1.4-0.3-1.6c-2.5-0.9-4-3.5-6.5-4.3c-3.2-1-4.7-4.7-2.8-7.5c2.8-4.1,2.6-8.7,2.4-13.5c-0.7,0.2-1.2,0.4-1.7,0.5
		c-4.3,1.5-7.3-0.5-7.1-5.1c0.1-1.6,0-3.6,0.8-4.9c2.5-3.9,1.3-7.1-0.6-10.8c-2.2-4.2-3.7-8.7-6-12.8c-2.8-4.9-6.4-5.1-9.6-0.6
		c-1.7,2.4-1.6,5.2-2.3,7.8c-0.6,2.2-3.3,3.2-4.3,1.5c-1.3-2.1-3-1.9-4.9-1.8c-1.1,0-2.1,0.1-3.2-0.4c-0.9-0.4-1.6-0.8-1.6-1.9
		c0-1.3,0.8-1.8,1.8-2.1c1.1-0.3,2.3-0.4,3.4-0.6c2.2-0.6,4.4-3.6,3.7-5.2c-1-2.3-3-1.2-4.3-0.7c-5.8,2.5-11.6,4.8-17.1,8
		c-3.9,2.3-6.6,5.2-6.1,10.4c0.5,4.6-0.4,9.3-0.8,13.9c-0.8,9.4,1.9,17.2,9.9,23c4.4,3.2,9.2,5.4,13.9,8c0.9,0.5,2.1,0.9,1.9,2.3
		c-0.2,1.6-1.6,1.6-2.7,1.5c-1.6-0.1-2.5,0.5-2.5,2.2c0,1-0.5,1.8-1.6,2c-1,0.2-1.4-0.7-1.8-1.4c-0.5-0.8-0.9-1.6-1.6-2.2
		c-3.8-3-8.1-5.2-12.3-7.3c-0.9-0.4-2-0.4-2.3-1.6C718,201,719.7,201.1,720.4,200.1z M184.6,37.3c0-3.1,0.2-6.1,1.3-9.1
		c0.4-1.2,0.9-2,2.3-1.8c1.2,0.2,1.6,1.1,1.5,2.2c-0.3,8.1,1.5,16.2,1.3,24.3c0,2.5,1,3.3,3.5,3c3.1-0.4,6.2-1.3,9.1-2.6
		c5.5-2.4,9.5-6.6,12.6-11.6c0.9-1.5,1.4-3.2,0.9-5.2c-0.7-2.8-0.8-5.8,0-8.7c0.6-2.2-0.4-2.4-2-2.1c-1.3,0.3-2.6,0.2-4,0.1
		c-0.9-0.1-1.7-0.4-1.8-1.4c-0.1-0.9,0.5-1.4,1.2-1.7c4-1.5,7-4.3,9.6-7.6c2.3-3,5.4-4.4,9.3-2.9c1.1,0.5,2.2,0.3,3.3-0.5
		c0.7-0.6,1.6-1.1,2.5-1.6c2.2-1.3,4.3-2.8,5.8-4.9c1.2-1.8,0.7-3.3-1.4-3.9c-1.7-0.5-3.4-0.5-5.2-0.1c-8.8,1.6-16.7,5.5-25,8.4
		c-5.4,1.9-10.7,4.2-15.9,6.7c-7.7,3.8-14.9,8.4-22,13.1c-7.5,5-14.6,10.4-21.5,16.2c-1.7,1.4-3.5,2.9-5.9,3.1
		c-0.9,0.1-1.9-0.1-2.5-0.9c-0.6-0.9,0.3-1.5,0.8-2.2c2.6-3.7,6.3-6.1,9.9-8.6c6.4-4.4,12.7-9.1,19.1-13.5
		c5.6-3.9,11.5-7.2,17.5-10.4c5.4-2.8,11-5.3,16.8-7.2c0.7-0.2,1.7-0.1,1.8-1c0.2-0.9-0.5-1.6-1.2-2.1c-2.4-1.6-5.1-2.5-7.8-1.8
		c-3.6,0.8-7.2,1.2-10.7,2.1c-1.7,0.4-3.3,0.4-4.9-0.4c-2.1-1-3.5-0.2-4.5,1.7c-0.4,0.9-0.6,1.9-1,2.8c-0.9,2.6-2.7,3.6-5.2,2.7
		c-0.8-0.3-1.4,0-2.1,0.5c-1.2,0.9-2.5,1.7-3.7,2.6c-1.4,1-2.8,1.2-4.1-0.1c-1.3-1.3-2.4-0.9-3.7,0c-4.3,2.9-8,6.5-11.4,10.4
		c-4.5,5.1-8.7,10.5-11,17c-1.7,4.7-4.5,6.6-8.5,6c-4.5-0.7-4.5-0.5-3.2,3.9c1.3,4.5,2.8,8.2,8.5,6.8c0.1,0,0.2,0,0.2,0
		c1.7,0.6,4,0.6,4.5,2.6c0.4,1.9-1.7,2.4-2.9,3.2c-0.6,0.4-1.3,0.7-1.1,1.5c0.1,0.7,0.7,1.1,1.4,1.3c3.6,1.1,7.1,1.2,10.3-1
		c3.6-2.6,3.6-2.7,6.9,0.5c0.4,0.4,0.9,0.8,1.3,1.2c1.1,1.4,2.6,2.5,4.3,1.6c1.8-0.9,0.9-2.7,0.5-4.2c0-0.2-0.1-0.3-0.1-0.5
		c-0.1-1.4,0.2-2.8,1.6-3.4c1.5-0.6,2,0.8,2.6,1.7c1.7,2.5,3.9,3.2,6.9,2.5c2.1-0.5,3.8-1.7,5.6-2.6c2.8-1.3,3.6-1.2,5,1.6
		c0.4,0.7,0.5,1.6,0.7,2.4c0.3,1.4,1.3,2.3,2.5,3c0.9,0.5,1.8,0.4,2.6-0.2c0.9-0.7,1.6-1.5,1.1-2.6c-1.1-2.3-0.7-4.7-0.9-7.1
		C185.5,51.6,185.1,44.5,184.6,37.3z M728.1,363.3c-0.3-1.6-0.7-3.3-0.9-4.9c-1.7-12-3.5-24.1-5.2-36.1c-0.2-1.4-0.9-2.6-1.7-3.8
		c-4.2-6.4-10.2-10.9-16.2-15.4c-6.8-5.2-14.1-9.6-20.7-15.2c-3.4-2.9-6.8-5.9-9.5-9.5c-0.6-0.8-0.3-2.5-1.9-2.3
		c-1.4,0.2-2.4,1.1-2.9,2.5c-1.8,4.8-3,9.6-3.1,14.8c-0.1,7.2-0.5,14.3-0.8,21.4c0,0.9-0.4,1.8-0.7,2.6c-0.6,2.1-1.5,4.3-0.8,6.6
		c1,3.1,2.5,5.9,4.7,8.4c5.5,6.2,12.2,11,18.9,15.8c2.7,2,5.8,3.6,8.1,6.2c4.1,4.7,6.1,10.4,6.5,16.6c0.3,5.2,2.5,8.4,7.6,9.7
		c0.2,0.1,0.5,0.1,0.7,0.2c1.3,0.7,2.2,0.3,3.2-0.8c4.5-4.9,8.6-10.2,13.6-14.6C727.7,364.9,728.2,364.3,728.1,363.3z M444.9,123.1
		c2.2,0.8,4.5,1.9,6.6,0.7c1.6-0.9,3-0.9,4.5-0.5c4.4,1.2,8.8,2.4,13.1,3.9c3.6,1.2,7.1,2.6,9.5,6c1.6,2.3,3.8,4.2,5.7,6.2
		c0.9,1,1.8,1,3.3,0.7c4.6-1.1,9.2-2.7,14.1-2.5c5.1,0.2,9.8,1.1,13.3,5.1c2.2,2.5,4,5.3,5.9,8c1,1.5,2.2,2.7,3.7,3.7
		c7.4,4.7,15.8,7,24.2,8.7c7.4,1.6,14.9,2.5,22.3,3.7c1.1,0.2,2.3,0.6,2.5-0.9c0.2-1.4-0.6-2.6-2.2-2.4c-2.4,0.2-4.6-0.5-6.8-1.2
		c-4.1-1.3-7.9-3.2-10.1-7.2c-0.6-1.1-1.1-2.1-2.1-3c-1.6-1.6-0.8-4,1.5-4.6c2.1-0.5,3.6,0.4,4.8,1.9c1.2,1.5,2.8,2,4.6,2
		c3.3,0,6.7,0,10,0c0.7,0,1.5,0.3,2-0.4c-0.7-5.8-5-9.9-6.8-15.3c-0.9-0.3-2-0.2-3,0.1c-3.1,0.6-6.1,1.6-9.3,1.2
		c-3.1-0.3-4.2-2.2-2.5-4.8c1.1-1.7,0.3-3-0.8-4.2c-3.2-3.6-7.3-5.7-11.7-7.2c-1.2-0.4-2-0.2-2.6,1c-1.1,2.3-1.9,2.3-3.7,0.4
		c-1.8-1.9-3.2-4.3-5.4-5.8c-8-5.7-16.5-10.4-26.5-11.5c-3.8-0.4-4.1-0.4-4.3,3.5c-0.2,3.3-3.9,6.8-7.1,6.6
		c-1.1-0.1-2.9-0.3-2.2-1.9c0.7-1.7,0.1-3.1-0.4-4.5c-0.7-2.1-1.2-4.2-0.8-6.4c0.3-1.7-0.3-2.7-1.6-3.5c-1.2-0.7-2.4-1.5-3.6-2.2
		c-2.8-1.5-4.8-0.4-4.7,2.8c0.1,2.2-0.7,3.9-2.5,5.1c-0.9,0.6-1.8,1.3-2.5,2c-2.3,2.2-1.8,4.4,1.1,5.7c1.4,0.6,2.7,1.6,4.1,2.3
		c1.4,0.8,1.3,2,1.1,3.3c-0.3,1.2-1.4,1.2-2.4,1.3c-1.8,0.3-3.1-0.9-4.6-1.5c-1,0.6-0.8,1.5-0.8,2.3c0,1.5-0.3,2.7-2.2,2.7
		c-1.8,0-2.4-1-2.5-2.7c-0.2-1.7,0.1-3.7-1-5c-1.5-1.7-1.5-3.6-1.3-5.6c0.4-3-0.8-4.2-3.8-3.5c-4.2,0.9-7.3,3.6-10.6,6.1
		c-2.4,1.8-3.1,4-2.6,6.7c0.6,0.2,1.2,0.4,1.7,0.7c0.9,0.4,2.1,0.8,1.8,2.1c-0.4,1.4-1.7,0.9-2.8,0.8c-0.4,0-0.8-0.1-1.2-0.3
		C445.9,121.3,445.2,121.9,444.9,123.1z M44.9,112.3c2.2,0.2,3.8-1,5.4-1.9c3.1-1.8,6.4-2.7,9.9-3.1c5.9-0.7,12-0.9,17.9-1.8
		c6.6-1,12.6-3.4,15.2-10.4c0.7-1.8,2.1-2.3,3.8-1.8c2.8,0.8,5.6,0.9,8.4,1c1.8,0.1,2.8-0.8,2.9-2.6c0.2-2.6,0-5.1-1-7.6
		c-1.7-4.2-3.3-8.5-4.3-13c-1.1-5.5-1.5-5.7-6.4-2.8c-4.4,2.6-8.8,5.4-12.2,9.3c-1,1.2-1.7,2.7-2.7,3.9c-1.1,1.3-2.6,1.6-4,0.7
		c-1.4-1-0.8-2.3-0.2-3.6c0.5-1,1.2-1.8,2-2.5c3.6-3.1,7.2-6.2,10.9-9.2c1.4-1.2,2.2-2.2-0.1-3.2c-0.8-0.3-1.4-0.9-1.7-1.7
		c-1-2.6-3.1-2.9-5.1-2c-7,2.9-14.2,5.2-19.8,10.6c-1.3,1.3-2.8,2.4-4.3,3.4c-1.1,0.9-2.2,0.8-2.8-0.7c-0.6-1.8-1.9-1.8-3.4-1.7
		c-2,0.1-3.6,1.2-5.3,2.1c-6.2,3.2-11.6,7.4-15.4,13.5c-1.2,1.9-0.7,2.9,0.9,3.9c1,0.7,1.7,1.6,1.9,2.8c0.1,1.2,0.4,2.4,1.7,2.8
		c1.4,0.4,2.4-0.3,3.3-1.3c2.9-3.2,5.9-6.4,8.8-9.5c0.9-0.9,2-1.8,3.3-1c1.4,0.9,0.7,2.2,0.2,3.4c-1.6,3.8-4.2,6.9-6.7,10.1
		c-1.5,1.9-2.5,4.4-5.5,4.6c-0.5,0-1,0.6-1,1.3c0,2.1,0,4.2,0,6.5C44.6,108.4,44.6,108.4,44.9,112.3z M472.6,139.9
		c-2-1.9-3.4-4.3-5.4-5.9c-5.1-3.9-11.5-4.5-17.5-5.5c-1.9-0.3-3.9-0.3-5.8-1.1c-4.2-1.7-4.3-1.5-6.6,2.3c-0.7,1.2-1.4,2.3-2.6,3
		c-3.9,2.4-8.2,3.3-12.8,3.4c-1,0-1.8-0.3-2.3-1.2c-1-1.9-2.2-3.7-3.1-5.7c-2.4-5.3-5.9-6.5-10.3-4.2c-2.9,1.6-4.3,1-6.1-1.6
		c-0.7-1-1.4-1.9-2.8-1.5c-1.4,0.3-1.3,1.6-1.5,2.6c-0.5,2.6-1.8,3.4-4.2,2.3c-1.4-0.7-2.7-1.6-4-2.5c-1.4-0.9-2.7-0.7-3.5,0.7
		c-1.8,3.2-5,4.6-8,5.5c-6,1.7-11.3,4.6-16.9,7.2c-1.5,0.7-3.4,0.8-4.6,2.3c-1.9,2.5-2.1,5.6-2.9,8.6c2,0,3.8,0.1,5.5,0
		c11.3-0.4,22.4,1.3,33.7,1.2c7.7-0.1,15.2-2.3,22.9-1.5c0.4,0,0.8-0.1,1.2-0.2c8.9-2.4,17.8-4,27.1-3.8c4.2,0.1,8.5,0,12.7-1.9
		C460.4,140,466.2,137.7,472.6,139.9z M283.5,141.8c0.1,0.1,0.3,0.3,0.5,0.4c5.8,1.6,10.9,4.8,16.1,7.7c2.9,1.6,5.4,3.8,9.4,3
		c7.2-1.4,14.4-2.8,21.7-3.3c3.5-0.2,7-0.6,10.8-1c-1.8-3-3.9-5.4-5.1-8.3c-0.5-1.1-0.5-1.9-0.1-3c1.3-3.6,3.9-6.1,6.9-8.3
		c1.5-1.1,3.4-2,4.1-3.9c-0.5-0.8-1.2-1.1-1.9-1c-1.9,0.1-3.1-0.5-2.8-2.7c0.1-1-0.8-1.3-1.6-1.5c-2.4-0.6-4.8-0.4-7.2-0.7
		c-6.5-1-13-2-19.6-0.9c-5.3,0.8-10.4,2.1-14.7,5.6c-1.8,1.4-2.4,2.9-0.7,4.8c0.6,0.7,0.9,1.6,1.2,2.4c0.4,0.9-0.2,1.4-0.8,1.9
		c-0.8,0.5-1.9,0.7-2.2,0c-1.1-2.7-2.9-1.3-4.6-1c-1.5,0.3-3.1,1.5-4.3-0.3c-1.2-1.7,0.1-2.9,1.2-4.1c0.1-0.1,0.2-0.2,0.3-0.4
		c0.3-0.5,0.6-1,0.3-1.6c-0.3-0.6-1-0.6-1.5-0.5c-2,0.2-3.7,0.7-4.4,3c-1.1,3.6-4.3,4.8-7.4,4.9c-3.9,0.1-7.6,0.3-10.6,3.2
		c-1,1-2.1,0.5-2-0.9c0.4-4-0.8-8,0.2-11.9c0.2-0.9,0.8-2-0.4-2.7c-1.2-0.7-2,0.3-2.7,1.1c-2.6,2.7-4,6.3-7,8.8
		c2.7,0.6,3.4,1.6,2.7,3.4c-1,2.6-6.1,5.5-9,5.2c-1.5-0.2-3.1-0.8-4.4,0.5c3.8,4.3,5.9,5.1,9,0.7c1.4-2,3.8-1.8,5.3,0.1
		c0.7,0.8,1.4,1.1,2.3,1.2c1.5,0.2,3,0.3,4.5,0.5c3.1,0.4,4.5-0.5,5.4-3.6c0.4-1.3,1.3-2.1,2.5-2.6c2-0.7,3.9-1.4,5.9-2
		c2.8-0.8,6.2,1,7.2,3.6c0.5,1.2,0.2,2.3-1,3C284.6,140.9,283.7,140.8,283.5,141.8z M91.6,142.6c0.9,1.7,0.9,1.7,0.8,3.9
		c-0.1,3.1,2,7,4.3,7.5c3.8,0.8,7.8,1,11.6,0.3c1.6-0.3,3-1.7,3.1-3.2c0.2-1.9-1.8-1-2.9-1.4c-1.3-0.4-2.9-0.8-2.8-2.4
		c0.1-1.8,1.9-1.2,3-1.2c3.8-0.2,7.6,1.1,11.4-1.3c0.9,3.8,3.1,6.8,4.3,10.2c0.4,1.2,0.2,2.1-0.6,3c-1,1.1-0.9,2,0.1,3
		c0.4,0.4,0.6,1,0.8,1.5c0.4,1.1,0.8,2.3,2.3,2.2c1.5-0.1,1.7-1.3,2.1-2.5c0.8-2.2,1.8-4.4,4.3-5c3.7-0.9,3.7-0.9,3.7-4.7
		c0-1.9-0.3-3.9,2-5.1c1.4,1.4,2.2,3.1,2.1,5.1c0,1.7-0.1,3.3-0.2,5c-0.1,2.5,1,3.7,3.5,4.3c4.8,1.2,9.4-0.2,14.1-0.3
		c1.1,0,2.1-0.6,2.1-2.1c0-3.2,0.9-6.2,2.2-9.2c0.8-2,0.1-3.3-1.8-4.2c-1.1-0.5-2.1-0.4-3.2-0.1c-4.1,1.1-7.7,1.2-10.3-3.2
		c-1.2-2-3.7-2.9-6.4-2.3c-2,0.4-4,1.1-6.1,0.2c-1.3-0.6-2.2,0.5-2.4,1.8c-0.2,1.7-1.3,3-2.2,4.4c-0.4,0.7-1.2,1.2-1.9,0.6
		c-1.2-1.1-2.9-1.5-3.9-3c1.3-1.5,2.1-3.1,3.5-4.3c0.8-0.7,0.9-1.8-0.1-2.6c-0.9-0.7-1.7-0.3-2.4,0.5c-0.4,0.5-0.8,1-1.3,1.5
		c-3.1,3.2-5.2,2.8-6.9-1.3c-0.2-0.5-0.3-1.1-0.4-1.7c-0.9-3.2-2.8-3.9-5.6-2.2c-1.1,0.7-2.4,1.2-3.5,0.3c-1.2-1-0.3-2.2,0.1-3.2
		c0.3-0.6,0.8-1.1,1.1-1.6c0.7-1.1,1.1-2.3,0.7-3.5c-0.4-1.2-1.3-1.7-2.3-0.7c-1.1,1.1-2.5,2-2.9,3.6c-0.5,1.9-1.8,3.4-3,4.8
		c-0.8,1-1.7,2.5-3.4,2.2c-0.2-0.6-0.1-1,0.2-1.3c0.5-0.7,0.9-1.5,0.3-2.3c-0.6-0.8-1.5-0.6-2.3-0.5c-1.9,0.4-3.1,1.7-3.8,3.3
		c-1,2.3-2.6,4.1-4.3,6c-2.1,2.4-4.7,4.5-6.2,7.4c-0.9,1.8-0.3,2.9,1.8,2.9c2.5,0,3.6-1.7,4.6-3.6C89.8,146.6,90.6,144.8,91.6,142.6
		z M221.3,142.3c-1-1.7-2.1-2.7-4.2-2.6c-1.9,0.1-3.5-1-3.6-3.1c-0.1-2.2,1.6-3,3.4-3.3c0.6-0.1,1.2-0.2,1.7,0
		c4.3,1.1,8.6,0.2,12.9,0.5c1.2,0.1,2.2,0.1,3.1-1c0.7-0.9,1.8-1.2,3-0.7c1.3,0.6,1,1.7,0.4,3.2c1.2-0.7,2,0,2.8-0.6
		c-0.1-1.3,0.6-2.3,1.4-3.6c-2.5-0.6-4.2-2.1-5.8-3.6c-1.3-1.2-2.2-1.1-2.9,0.8c-0.7,1.7-2.4,2-3.9,0.9c-0.5-0.4-0.9-1-1.3-1.5
		c-2-2.6-3.2-2.7-6.2-1.3c-4,1.9-7.7,4.3-11.5,6.4c-2.9,1.5-5.4,1.2-5.8-1c-0.5-2.1-1.4-2.2-3-1.4c-0.5,0.2-1.1,0.4-1.7,0.3
		c-4.4-0.4-6.6,1.8-7.6,5.9c-0.5,1.8-1.7,3-3.4,3.9c-1-1-0.2-1.9-0.3-2.8c-0.1-1.6,1.3-3.7-1-4.7c-2.2-0.9-2.7,1.5-3.8,2.6
		c-2.2,2.3-1.8,5.1,0.4,7.3c1.4,1.4,1.9,3.1,1.8,5c-0.1,1.3-0.3,2.7-0.3,4c0,1.4,1,2.1,2.3,2.3c1.4,0.2,1.9-0.9,2-2.1
		c0.1-1.3,0.1-2.7,0-4c-0.1-1-0.1-2,1-2.2c1.1-0.3,1.6,0.6,2.1,1.4c1.7,3.3,3.9,6,7.8,6.5c1.1,0.1,2,0.8,2.9,1.4
		c2.5,1.7,4.6,4,7.6,5.2c1-4.2,3.3-5.4,7.4-4c0.9,0.3,1.9,0.7,2.8,0.9c2.8,0.5,4.9,1.7,5.2,5.1c6.8-0.5,13.5,0.7,20.2-1.1
		c-3.2-2.7-3-5.4-0.8-8.4c-2.2-0.2-4.5,0.2-6.1-0.6c-4.8-2.2-10.4-1.1-15.1-3.8c-0.8-0.5-1.6-0.1-2.4,0.1c-2.3,0.7-4.6,1.4-7,1.9
		c-1.5,0.4-2.8-0.2-3.5-1.7c-0.6-1.5,0.1-2.6,1.3-3.4c0.8-0.6,1.7-1,2.7-1.3C218,143.6,219.7,143.4,221.3,142.3z M556,29.7
		c-0.7,1.3-2.7,1.4-3,2.8c-0.5,2.1-2,3.1-3.3,4.6c-2.2,2.5-4.6,5-6.6,7.7c-1.1,1.5-2.5,3-1.4,5.4c0.7,1.4-0.2,2.4-1.8,3
		c-2.6,0.9-3.2,2.5-2.1,5c1.1,2.5,3.3,4.1,5.5,5.2c7,3.4,14.1,6.4,22,7.4c1.5,0.2,1.9-0.5,2.2-1.6c0.8-2.9,2.6-5.2,4.1-7.7
		c3-4.7,7.5-8.3,9.7-13.6c0.6-1.4,1.3-2.8,0.2-4.2c-1.1-1.4-2.7-1.7-4.3-1.3c-1.7,0.4-3.4,1.2-5.1,1.7c-2,0.5-3.3,0.3-4.5-2.1
		C565.4,36.6,561.5,32.4,556,29.7z M626.3,89.6c-0.9,0.1-1.3,0-1.6,0.2c-2.4,1.4-4,3.5-5.5,5.8c-0.9,1.5,0,2.7,0.1,4.1
		c0.3,4.5-2.2,8-4.3,11.6c-1.1,1.8-2.5,2-3.6,0.3c-0.8-1.2-1.7-2.1-3.2-1.9c-1.7,0.3-1.4,2.1-1.8,3.2c-0.2,0.4,0.1,0.9-0.1,1.2
		c-0.8,2-0.6,4.3-2.4,6.1c-2.3,2.3-2.9,5.8-5.1,8.2c0,0,0,0.2,0,0.2c-1.3,4.6,0.4,9.1,1.4,13.4c1.2,5.6,3.7,10.9,6.5,15.9
		c0.7,1.3,1.2,3.6,2.7,3.5c1.9-0.2,2.5-2.5,3.4-4.2c1.2-2.6,2.7-5.2,3.9-7.8c0.9-2.1,3.1-3.8,3-6.1c-0.2-6.5,1.1-12.9,1.1-19.4
		c0-6,1.4-11.8,3.6-17C626.8,101.1,625,95.5,626.3,89.6z M270.9,15.9c3.1,0.6,6.6-0.8,10.2-1.8c3-0.9,5.6-2.4,7.5-4.5
		c2.8-3.1,1.1-7.2-3.5-9.5c-4-2-8.2-2.1-12.6-1.6c-5.7,0.7-11.5,1.6-16.8,3.8c-6.3,2.6-12.2,6.1-17.5,10.3c-2.1,1.7-3.8,3.7-5.4,5.8
		c-0.9,1.1-1.1,2.6,0.7,2.8c3.8,0.4,7.1,2.4,10.7,3.3c2.8,0.8,5.2,0.2,7.1-1.7C256.5,17.7,262.9,15.6,270.9,15.9z M178.8,189.2
		c0.3-0.5,1.2-1.2,0.3-1.8c-0.8-0.6-1.3,0.1-1.9,0.5c-2.5,1.5-4.7,3.4-7,5.1c-1.3,1-2.8,2-3.1,3.7c-0.4,2-1.3,3.2-3.5,2.7
		c-1.6-0.3-3.5,0.9-4.9-0.8c-1.2-1.5-2.6-2.2-4.4-1.3c-2.1,0.9-1.5,2.7-1.1,4.3c-0.6,0.3-1.1,0.6-1.6,0.8c-0.6,0.2-1.1,0.8-1.9,0.4
		c-0.9-2.8-2.7-3.7-5-2.5c-1.8,1-3,2.5-2.9,4.6c0,1.1-0.2,2-0.6,3.1c4.2,0,8.1-0.2,12,0.1c4.6,0.3,9.5,0,13.6,2.4
		c3.3,1.9,6.5,2,9.8,1.5c4-0.6,8-2.1,10.6-5.5c2.6-3.5,6.2-5.4,9.9-6.7c3.9-1.4,6-4.4,9.2-7C196.7,191.5,187.9,190.4,178.8,189.2z
		 M704.8,166.1C704.8,166.1,704.8,166.1,704.8,166.1c-1.1,0-2.2-0.1-3.3,0c-3.1,0.3-4.1,1.8-3.1,4.6c0.3,0.9,0.8,1.6,1.1,2.5
		c0.6,1.4,0.2,2.8-1.4,2.7c-4-0.4-5.1,1.6-5.1,5c0,0.6-0.3,1.1-0.5,1.7c-2,7.8-4.2,15.6-3.6,23.8c0.1,0.9,0,1.8,0.9,2.1
		c0.9,0.3,1.5-0.3,2.2-0.9c2.5-2.2,4.7-4.7,7.1-7c4.2-4.2,7.8-9.1,12.6-12.8c0.6-0.5,0.7-1,0.8-1.7c0.6-7.6,1.2-15.2,1.7-22.9
		c0.1-2-0.4-3.8-1.3-5.5c-0.4-0.8-0.9-1.4-1.9-0.8c-1.9,1-2.9,4-2,5.9c1.2,2.6,0.8,3.2-2,3.3C706.3,166.1,705.5,166.1,704.8,166.1z
		 M800.8,220.4c0.6-2.3,1.2-4.2,1.8-6.2c1-3.7,0.4-4.7-3.2-6.1c-0.3-0.1-0.6-0.2-0.9-0.3c-1.8-0.5-2.3-1.7-1.2-3.2
		c1.1-1.6,1.1-3,0.4-4.7c-0.4-1.1-0.7-2.2-0.9-3.4c-0.3-2.6,0.6-3.8,3.2-4.3c0.6-0.1,1.1-0.2,1.5-0.7c1.2-1.9,0-6-2-6.9
		c-1.1-0.5-2.2-1.2-3.2-1.9c-1.3-0.8-1.2-2.2-0.9-3.4c0.4-1.3,1.6-1.7,2.8-1.4c1.1,0.3,2,0.1,3.1-0.8c-1.3-1-2.4-1.9-3.6-2.6
		c-5.9-3.4-6.9-3.5-11.6,0.8c-0.8,0.7-1.6,1.3-1.6,2.6c0.2,5.3,0.1,10.7-1.7,15.8c2.4,1.6,4.8,3,4.4,6.4c1.8,0,2.1,0.9,2.5,2.6
		c0.7,3.2,0.6,6.5,1.7,9.5c0.7,2,0.9,4.6,3.3,5.6C796.5,218.7,798.5,219.5,800.8,220.4z M643,68.4c1.2-0.1,1.9-2.5,3.3-1
		c1.2,1.2,0.7,2.9,0.3,4.4c-0.6,2-1.4,4-2,6.1c-0.3,1.1-0.5,2.2-0.7,3.4c-0.4,3.4,1.8,5,5.1,4.3c5.5-1.2,11.1-0.5,16.7-0.6
		c1.2,0,1.5,1.1,1.7,1.9c0.6,2.8,2.6,4.6,4.4,6.6c1,1.1,2.1,1.2,2.9-0.6c-2.8-2.1-5.1-4.4-4.6-8.3c0.1-0.5-0.5-1.2-0.9-1.7
		c-1.1-1.4-2.1-2.9-2.8-4.6c-1.8-4-4.3-7.6-3.4-12.5c0.9-5-4.6-8.1-7.6-6.5c-3.2,1.7-6.8,1.9-10.1,3.4C642.6,63.8,641.4,66,643,68.4
		z M203.4,185c2.1,0.3,4.1,0.6,6-0.3c0.9-0.4,2-0.5,3-0.2c5.2,1.6,10.2,0.3,15.2-1c3.9-1,7.7-2.3,11.7-2.4c2.9-0.1,5.5-1,8.3-1.5
		c1.1-0.2,1.8-1,1.9-2.1c0.2-2.2,0.4-4.4,0.5-6.8c-9.6-1.1-18.9-1.3-28.2-0.3c-0.7,0.8,0,1.8-1.1,2.5c-2.2-0.2-4.6-0.3-7-0.5
		c-2.5-0.2-3.3,0.7-3,3.2c0.1,1.1,0.6,2.4-0.3,3.1C207.8,180.4,207.1,184.3,203.4,185z M639.3,120.9c1.9-0.7,1.9-0.7,3-1.8
		c6.3-6.3,12.8-12.3,20.9-16.5c3.4-1.8,3.3-2,2.1-5.7c-0.2-0.5-0.5-1.1-0.5-1.7c-0.2-5-5.3-7.4-9.8-6.6c-1.7,0.3-3.4,0.9-3.1,3.4
		c0.3,2.3-0.6,4-2.7,5.1c-2.1,1.1-3.7,0-5.3-1c-0.8-0.5-1.5-1.9-2.6-0.4c-1,1.3-0.7,2.6,0.7,3.4c1.3,0.8,2.6,1.7,4.3,1.8
		c2.3,0.1,3,1.7,3,3.5c-0.1,1.8-1.5,2.7-3.3,2.7c-2.5,0-4.7-0.9-6.8-2.1c-1.5-0.9-3-1.7-4.5-0.4c-1.6,1.3-1.6,3.2-1.2,5
		C634.6,113.9,636.6,117.5,639.3,120.9z M77.8,174.4c0-0.8,0-1.7,0-2.5c-0.1-2.4-0.9-3.3-3.2-2.9c-2.5,0.4-5,0.2-7.5,0.5
		c-3.3,0.4-6.8,2.2-7.4,5.9c-0.3,2.3,0.4,3.9,2.7,3.8c2.9-0.1,2.6,1.6,2.4,3.4c-0.1,0.9-0.7,1.7-1.1,2.5c-0.6,1.6,0.2,2.8,1.5,3.6
		c1.2,0.8,2.1,0.2,3-0.8c0.8-0.9,1.9-1.6,2.9-2.3c0.6-0.4,1.3-0.3,1.9,0.1c0.5,0.3,0.5,1,0.3,1.4c-1.1,1.6-1.4,3.6-2.8,5.2
		c-2.6,2.8-5.6,5.4-7.1,9.1c-0.4,0.9-0.7,1.7-0.2,2.6c0.6,1,1.6,0.7,2.5,0.5c1.2-0.2,2.3-0.9,3.3-1.7c2.4-1.9,4.4-4.3,7.3-5.8
		c3.8-1.9,4.2-3,2.9-7.3C77.6,184.6,78.3,179.4,77.8,174.4z M591,67.3c4.9-1,6.1-0.6,7.5,2.1c1.2-0.5,1.6-1.1,1.1-2.4
		c-0.6-1.6-1-3.2-2.3-4.5c-1.1-1-0.5-2.2,0.3-3.3c1.2-1.6,2.4-3.3,3.7-5.1c-1.4-0.5-2-1.5-1.6-2.7c0.4-1.3,1.6-0.8,2.6-0.9
		c4.1-0.4,7.9-1.4,10.9-4.4c0.9-0.9,1.3-2,0.5-3.3c-0.8-1.3-1.9-1-3.1-0.8c-3.2,0.8-4.4,0.3-6-2.3c-0.5-0.8-0.8-1.7-2-1.3
		c-1.1,0.4-2,0.8-2.2,2.3c-0.3,1.8,0,3.8-1,5.6c-0.8,1.5-1.8,3.2-3.7,2.5c-1.6-0.6-1.4-2.3-1.3-4c0.3-2.5,0.5-5.1,1.3-7.4
		c-4.3-1.9-8.5,3.1-8.2,7.8c0.3,4.1-1.3,7.5-3.3,10.7c-1.2,2-1.2,3.3,1,4.4c0.7,0.4,1.5,0.6,2.3,0.9C591.7,62.4,592.1,63,591,67.3z
		 M645.7,126c0.1,0.4,0.4,1.1,1.1,1.5c2.6,1.7,4.4,4.2,6.4,6.5c2.4,2.7,2.7,3.4,6.8,1.6c1.7-0.7,3.2-1.6,4.7-2.5
		c2.4-1.5,5.3-3.1,5.8-5.9c0.9-4.6,0.2-9.2-1.1-13.7c-0.3-0.9-0.9-1.6-1.8-1.2c-2.1,0.8-4.3,0.4-6.4,0.4c-1.6,0-2.8,0.3-4,1.6
		C653.5,118.1,649.7,121.9,645.7,126z M49.5,68.1c-2-1.7-3.8-3.2-6.4-2.8c-2.3,0.4-1.8,2.7-2.4,4.2c-0.3,0.9-0.8,1.6-1.8,1.4
		c-0.9-0.1-1.1-0.9-1.1-1.7c0-2.1,0-4.2,0-6.2c0.1-2-0.9-2.7-2.8-2.6c-1.2,0.1-2.3,0.4-3.3,1c-6.2,4.3-12.1,9.1-17,14.9
		c-0.6,0.7-0.8,1.5-0.6,2.5c0.9,4.3,3.7,6,7.8,4.5c0.7-0.3,1.4-0.5,2.1-0.9c6.2-3.1,12.1-6.8,18.5-9.8
		C44.8,71.5,47.5,70.6,49.5,68.1z M345.5,13.1c-0.5-0.6-0.7-0.9-0.9-1.1c-0.6-0.5-1.6-0.8-1.2-1.9c0.4-1,1.3-1.5,2.4-1.4
		c0.6,0.1,1.2-0.1,1.7,0.1c1.2,0.4,2.7,1,3.3-0.5c0.7-1.8,2.5-3.3,1.4-5.6c-1.1-2.4-5.3-5.1-8.2-4.9c-4.8,0.4-9.2,1.8-12.7,5.2
		c-1.5,1.4-2.7,1.8-4.3,0c-1.9-2.1-4.3-2.7-7-1.7c-1.9,0.7-2.1,1.9-0.6,3.3c1.1,1,2.1,2.1,3.2,3.1c3,2.5,6.2,4.3,10.3,4.2
		c1.1,0,2.5-0.7,3.3,0.3c0.9,1.3-0.6,2.2-1.1,3.3c0,0.1-0.1,0.1-0.1,0.2c-0.6,1.4-1.4,3.1-0.1,4.1c1.2,1,2.5-0.6,3.7-1.1
		C341.4,17.5,342.2,14,345.5,13.1z M12.9,18.6c0,1.5-0.4,2.6-1.4,3.8c-2.1,2.5-4.9,4.2-7.1,6.6c-0.8,0.9-1.8,1.8-1.3,3
		c0.5,1.3,1.9,1,3.1,0.9c0.6,0,1.2-0.1,1.7-0.1c5.4,0.2,10.2,1.6,12.5,7.2c0.2,0.5,0.7,0.9,1.1,1.4c0.6,0.7,1.1,1.9,2.4,1.4
		c1.2-0.6,2.4-1.5,2.4-3c0-4.5,0.5-9.1-0.8-13.6c-0.9-2.9-2.5-4.7-5.3-5.4c-2.3-0.6-2.9-1.7-2-3.8c0.5-1,0.7-1.9-0.6-2.5
		c-1.5-0.6-3-0.4-4.3,0.2c-1.3,0.6-0.2,1.8-0.3,2.7C12.9,18,12.9,18.3,12.9,18.6z M125.9,70.2c-0.8-6.2-1.6-12.3-4.1-18.1
		c-0.6-1.5-1.5-1.8-2.5-0.4c-0.9,1.3-1.7,2.6-2.4,4c-1.8,3.8-3.5,7.8-8,9.4c-0.6,0.2-0.9,0.7-1.1,1.3c-2.1,4.9,1.4,10.7,6.7,10.9
		c1.5,0,3,0,4.5,0c1.1,0,2-0.3,2.4-1.4c0.4-1.2,1.1-1.5,2.3-1.1c1.6,0.5,2.3-0.5,2.4-2C126.1,71.9,126,71.1,125.9,70.2z M28.9,22.5
		c-0.8,0.8-0.6,1.6-0.5,2.4c0.9,4,0.8,8.1,1.1,12.1c0.2,2.7,1.5,3.9,4.2,3.3c1.2-0.3,2.3-0.3,3.5-0.2c4.3,0.5,6.3-2.3,5.5-6.6
		c-0.8-4.3-2.3-9,2.4-12.6c1.8-1.4,1.2-3-1-3.6c-3.2-0.9-6.5-0.7-9.7-0.6c-1.9,0.1-3.1,1.7-2.7,3.2C32.5,23.4,30.8,23,28.9,22.5z
		 M493.1,71.5c-0.7,1.3-0.2,2,0.1,2.8c1.7,5.7,6.4,7.7,11.4,9.2c5.8,1.7,12,2.1,17.6,4.7c1.5,0.7,2.2,0,2.5-1.7
		c0.3-2.3,0.5-4.6,2.4-6.3c1-0.9,0.4-1.5-0.5-2.1c-1-0.6-2.2-0.8-2.9-1.8c-1.3-1.7-2.3-1-3.2,0.4c-0.5,0.8-0.8,1.6-1.4,2.3
		c-1.8,2.2-2.8,2.2-4.8,0c-0.8-0.9-1.5-2.2-2.5-2.7c-2.4-1.4-4.4-3.1-5.9-5.5c-0.3-0.5-1.1-1.1-1.3-1c-2,0.9-2.9-1-4.4-1.8
		C498.2,69.9,496.4,72.4,493.1,71.5z M629.1,113.9c-0.8,3.2-1.7,6-2.2,8.9c-0.7,4.1-1.1,8.2-1.4,12.3c-0.3,4.5-0.5,9,0.3,13.4
		c0.5,2.6,3.1,5.1,5.3,4.5c2.2-0.6,4.4-1.6,5.8-3.5c1.3-1.7,1.3-3.6,0-5.3c-1.3-1.6-2.3,0.1-3.4,0.6c-2.2,1-3.3,0.4-3.4-2
		c-0.1-2.7,1.3-4.5,3.4-6c4-2.9,4.9-6.5,2.8-11.1c-0.6-1.3-1.2-2.7-2-4C632.5,119.4,631.6,116.5,629.1,113.9z M627.9,165.6
		c0-0.3,0-0.9-0.1-1.3c-0.6-3.4-2.8-4.4-5.9-2.8c-2.8,1.5-5.1,3.7-7.5,5.7c-2.2,1.9-2.7,4.4-2,7c1.7,5.9,5.7,9.6,11.5,11.3
		c1.7,0.5,2.8-0.6,3.7-2c0.7-1,1.2-1.9,0.2-2.9c-1.8-1.9-1.7-4.1-1.3-6.5C627.1,171.4,627.4,168.6,627.9,165.6z M656.9,197.5
		c0-0.5,0-0.8,0.1-1.2c0.2-2.7-0.3-3.1-2.8-1.8c-1.1,0.5-1.9,0.2-2.8-0.3c-3.9-2.1-6.1-5.7-8.1-9.4c-0.6-1.1-1-2.9-2.8-1.9
		c-2.1,1.2-4.5,2-5.8,4.5c-0.9,1.6-1.3,3.4-2,5.1c-0.4,0.9-1.1,1.9,0.4,2.5c1.1,0.4,1.9-0.2,2.5-1.1c0.7-1.1,1.5-2.2,2.2-3.3
		c0.5-0.7,1.2-1.2,2.1-0.8c0.8,0.4,0.8,1.2,0.8,1.9c-0.1,1.8,1.1,5.5,2.1,6.9c0.1,0.1,0.1,0.2,0.1,0.2c2,1.8,2.1,4.8,3.9,6.8
		c1.7,1.9,5.6,2.5,6.8,0.3C655.1,203.2,657.5,200.8,656.9,197.5z M425.7,99c-1.8,1.4-3.7,2.8-5.5,4.3c-1.1,0.9,0.4,2-0.2,3
		c-0.4,0.6-0.7,1.4-1.2,1.9c-1.4,1.5-2.9,2.9-5.1,3.4c-1.4,0.3-2.8,0.9-4.2,1.4c-1.1,0.4-1.9,1.3-1.9,2.4c0,1.1,1.2,1.3,2.1,1.4
		c1.4,0.1,2.5,0.8,3.6,1.6c2.6,1.9,4,1.7,6.1-1c2.3-3,4.8-5.7,8-7.7c1.2-0.8,2.5-0.9,3.8-0.2c1.2,0.7,0.7,1.8,0.5,2.9
		c-0.2,1.5-0.3,3-0.1,4.5c0.4,3.1,2.5,4,5,2.4c1.3-0.8,2.4-1.9,3.3-3.1c1.5-2,0.8-4-1.6-4.7c-0.9-0.3-1.6-0.8-2.4-1.3
		c-1.4-0.9-2.4-2.3-4.1-2.9c-3-1-4.8-2.9-4.9-6.2C426.9,100.5,426.9,99.6,425.7,99z M632.8,171.1c1.2-0.7,2.4-1.4,3.5-2.1
		c1.1-0.7,2.5-1,2.9,0.5c0.4,1.5,1.4,2.4,2,3.7c0.8,1.9,2.3,2,3.6,0.9c1.7-1.3,3.5-2.5,4.5-4.5c-0.3-1-2-1.3-1.3-2.7
		c0.6-1.1,1.7-0.7,2.7-0.8c2.1-0.2,3-1.3,2.1-3.2c-1.5-3.1-3.2-6.2-5-9.1c-0.7-1.1-1.9-2.2-3.3-1.6c-3.5,1.4-6.9,3.1-9,6.4
		c0.8,1,1.9,1,2.8,1.3c1.8,0.7,4.2,1.3,3.5,3.7c-0.6,2.5-2.8,1.5-4.6,1c-1.5-0.4-3.1-0.3-4,1.2C632.2,167.4,631,169,632.8,171.1z
		 M299.3,154.2c-3.2-2.6-6.3-4-9.3-5.5c-0.6-0.3-1.4-1.3-2-0.8c-2.1,1.7-4.8,1.2-7,2c-0.6,4.3-2.2,5.5-6.4,4.9
		c-1.8-0.3-3.5-0.9-5.2-1.7c-0.6-0.3-1.3-1-2.1-0.5c-4,2.6-8.5,4.5-12.4,7.7c2.3,1.8,4.7,2.5,7.4,2
		C274.5,159.9,286.4,155.9,299.3,154.2z M238.2,48.7c0,0.7,0,1.1,0,1.4c0.1,1-0.4,2.5,1.1,2.6c1.2,0.1,1.5-1.1,1.7-2.1
		c0.5-2,0.8-4,1.3-6.1c0.5-2.2,0.7-4.6,2.5-6.3c2.2-2.2,2.1-3.8-0.2-5.9c-3.2-3.1-7.1-4.5-11.3-5.3c-1.3-0.2-2.3,0.5-2.5,1.9
		c-0.5,4.1-0.1,8.1,0.9,12c0.4,1.5,1.3,2.8,3,3.1C237.7,44.6,238.6,46.3,238.2,48.7z M597.6,78.6c-2.5,2-6.3,3-3.4,7.5
		c1.1,1.7-0.1,3-2.4,3.1c-1.2,0-2.5-0.1-3.7,0.1c-1.7,0.3-3.5,0.8-4,2.7c-0.5,1.9,1.1,2.9,2.2,3.5c2.1,1,2.7,2.6,3.1,4.6
		c0.1,0.7,0.4,1.4,1.2,1.4c1.4-0.1,2.3,0.7,3.2,1.6c1,0.9,2.1,0.8,3.2,0c1.2-0.8,0.7-1.8,0.1-2.6c-1.1-1.3-0.9-2.7-0.6-4.1
		c1.5-0.9,2,0.9,3.3,1c0.9-2.7,0.9-5.7,2.4-8.2c0.5-0.8,0.6-1.8,0.7-2.9C602.7,82.5,600.2,80.7,597.6,78.6z M112.5,45.8
		c-1.6-0.1-3.1-0.1-4.6,0.6c-3.9,1.8-7.5,4.3-11.6,5.7c-2.5,0.8-2.7,2.5-0.7,4.3c1.1,1,2.2,2.1,2.5,3.7c0.2,1.2,1.1,1.3,2.1,1.1
		c2.3-0.5,3-2.2,3.1-4.3c0.1-1.7,1-2.5,2.6-2.2c1.7,0.4,1.3,1.7,0.9,2.8c-0.4,1.1-1,2.3,0.6,2.9c1.5,0.6,2.1-0.6,2.7-1.5
		c1.7-2.5,3.4-5.1,5.2-7.6c0.9-1.3,2.6-2.4,1.8-4.1c-0.8-1.8-2.7-1.2-4.2-1.4C112.6,45.8,112.6,45.8,112.5,45.8z M-22.7,25.9
		c-5.7-0.9-10.8,3.4-9.9,8c0.6,2.7,1.5,3.7,4.2,3.2c1.3-0.2,2.5-0.4,3.6,0.4c0.5,0.4,1,0.4,1.7,0.2c2.8-1,5.8-1.4,8.4-2.8
		c1.4-0.7,2.4-1.7,2.5-3.1c0.1-1.4-0.9-2.5-2.1-3.2C-16.9,26.9-19.7,25.2-22.7,25.9z M309.4,12.4c1.3-1.2,2.3-2.2,3.2-3.2
		c0.5-0.6,1-1.3,0.4-2.3c-1.5-2.5-3.6-4.5-6-6.2c-0.8-0.6-1.9-0.4-2.6,0.7c-0.6,1.1-1.3,2.1-2.2,3c-4.7,4.8-10.5,8-15.9,11.9
		c-1,0.7-2.6,1.3-2.3,2.6c0.4,1.6,2.1,1.5,3.6,1.5c0.8,0,1.4-0.3,2.1-0.7c2.1-1.2,4.3-2.1,6.3-3.4c2.7-1.7,5.7-2.5,8.4-4.1
		C306.4,11.2,307.8,10.3,309.4,12.4z M625.2,75.3c-0.7-1-1.6-0.7-2.4-0.7c-1.6,0.1-3.1-0.4-4.1-1.4c-1.2-1.1-2.7-1.6-3.9-2.6
		c-1.2-1-2.4-0.9-3.5,0.7c-1.7,2.5-2.8,5.2-3.2,8.1c-0.6,4.1,0.1,8,3,11.3c0.8,1,2.3,2.1,3,0.6c1.1-2.8,3.9-5.1,3.2-8.6
		c-0.5-2.2,0.8-3.4,2.6-4.2C621.7,77.7,623.5,76.7,625.2,75.3z M202.4,180.4c-0.2-1-0.9-0.9-1.6-1.1c-2.1-0.5-4.1-0.9-6.2-1.8
		c-4.1-1.8-7.7-4.6-12.1-5.9c-1.4-0.4-2.2-0.4-2.7,1.1c-0.8,2.2-2.6,3.2-4.8,3.5c-1.2,0.2-2.2,0.7-3.2,1.4c-1.7,1.2-1.6,2.2,0.2,3.1
		c2.1,1,4.1,2.1,6.4,2.6c3.6,0.8,4.8,0.4,5.9-3.2c0.3-0.9,0.6-1.9,1.7-1.8c1,0.1,1.1,1.1,1.2,1.9c0.3,1.9,1.7,2.2,2.9,1.6
		c2.3-1.3,4.7-0.8,7.1-0.8C199.1,181.1,200.9,181.3,202.4,180.4z M653.3,152c0.1,2,0.5,3.9,1.8,5.5c1,1.2,1.7,1.8,3.5,0.9
		c2.5-1.3,4.3-3.5,6-5.5c2.7-3.2,4.4-6.9,3.7-11.3c-0.3-2.1-1.2-2.7-2.9-1.7c-2.3,1.3-4.6,2.7-6.7,4.3
		C656.1,146.2,653.1,148,653.3,152z M230.5,47.6c-1.6-2.1-3.2-4.2-4-6.6c-1.1-2.9-1.9-3.3-4.2-1.2c-2.9,2.6-5.2,5.7-7.3,9
		c-1.1,1.7-2.9,3.1-3.3,5.2c-0.2,1-0.3,1.9,1,2.1c1.3,0.2,5.5-2.7,5.9-4c0.3-1,0.5-2.2,1.7-2.5c1.2-0.3,1.7,0.8,2.4,1.5
		c2,2.1,2.9,2.1,4.9,0C228.5,49.9,229.5,48.7,230.5,47.6z M42.3,57.7c1.2,2.3,2.8,3,4.9,3.6c3.2,0.9,6.4,0.3,9.6,0.3
		c2.8,0,5.1-1.3,7.1-3.2c0.7-0.6,1.1-1.5,0.8-2.5c-0.3-0.9-1.1-1.1-1.8-0.9c-2.5,0.4-3.9-0.5-4.9-2.8c-0.4-1-1.2-2-2.5-0.9
		c-2.3,1.9-5,3.2-7.9,4C45.9,55.9,44.2,56.8,42.3,57.7z M-42.8,116.4c1.6,0.6,3,0.6,4.3,0.2c5.5-1.6,10.2-4.8,14.7-8.2
		c1.3-1,1.9-2.7,1.6-4.3c-0.3-1.7-2.1-1.3-3.3-1.6c-2.3-0.4-4.6,0.2-6.9,0.5c-1.8,0.2-3.2,1.5-2.9,3.5c0.4,3.6-1.7,5.3-4.5,6.7
		C-41.2,113.8-42.5,114.5-42.8,116.4z M59,248.5c0.6,0,1.2,0,1.7,0c2.4-0.2,4.4-1.2,5.1-3.7c0.7-2.5-0.3-4.4-2.5-5.7
		c-1.8-1.1-3.6-2-5.7-2.5c-3.4-0.7-6.2,1.4-6.3,4.8C51.3,246.2,53.8,248.5,59,248.5z M163.3,138.4c0.1,0.9,0.2,1.8,1.2,2.3
		c1.7,0.9,2.5,2.6,3.7,4c0.7,0.9,1,2.2,2.5,2c1.5-0.3,2.3-1.4,2.7-2.7c0.3-0.9,0.4-1.9,0.6-2.9c0.5-2.9,0.9-5.9,1.5-8.7
		c0.4-1.8-0.2-2.7-2-2.3c-3.3,0.8-6,2.6-8.5,4.8C164,135.8,163.4,137,163.3,138.4z M819.7,19.6c0.9,1.8,2,2.5,3.9,2.8
		c2.3,0.4,4.7,0.5,7,1.3c2.8,0.9,5.8,1.3,8.7,1.5c2.6,0.2,5.2-0.1,7.3-2.2c1-1.1,0.8-2.1,0-2.7c-0.7-0.6-1.7-2-3-0.6
		c-1.3,1.5-3,1.9-4.7,2.5c-3.1,1.1-5.6-0.4-5.9-3.7c-0.3-2.5-2.4-3.8-4.7-2.8c-0.6,0.3-1.2,0.6-1.9,0.4
		C823.1,15.5,821.4,17.4,819.7,19.6z M-3.5,43.6c0,0.8,1,1.7,1.4,2.9c0.3,0.8,0.8,1.3,1.6,1.3c0.9,0,1.2-0.7,1.5-1.4
		c0.7-1.6,1.2-3.3,2.3-4.7c2.4-3.1,4.9-3,6.9,0.3c0.8,1.3,1.8,2.6,2.3,4.1c0.7,1.7,2.3,2.4,3.9,1.7c1.7-0.7,0.6-2.1,0.1-3.2
		c-0.4-0.9-0.5-1.9-0.9-2.9c-1.3-3.1-5.2-5.7-8.3-5.3c-1.8,0.2-3.6,0.5-5.4,0.8C-0.7,37.8-3.3,40.5-3.5,43.6z M820,184.7
		c-1.6,0.6-3.3,0.4-5,0c-1.3-0.3-2.7-0.1-3.9,0.6c-1.7,0.9-1.7,2.4-0.1,3.5c4.8,3.1,5.8,5.2,4.7,10.3c1.9,0.6,3.5,0.2,4.4-1.6
		c0.7-1.3,1.4-2.4,2.3-3.5c1.6-2.2,1.4-3.3-0.7-4.9c-0.7-0.5-0.9-1.1-0.9-1.9C821,186.2,820.9,185.4,820,184.7z M364.2,8.3
		c2.7,0,5.7-1.9,6.1-4c0.3-1.8-1.9-4.2-4.7-4.8c-3.1-0.7-6.3-1.2-9.4-1.7c-1.5-0.3-1.8,0.6-1.6,1.7C355.8,4.3,358.4,8.5,364.2,8.3z
		 M192,104.3c0.1-3.9-3.6-6.3-8.2-5.5c-2.2,0.4-3,1.7-2.8,3.7c0.3,1.8,0.5,3.6,0.7,5.4c0.2,1.9,3.1,4.4,4.4,4.1
		C188.3,111.3,191.9,106.7,192,104.3z M23.2,57.1c-4.8,0.5-9.4,2-13.4,5.2C8.9,63,8.6,63.9,8.9,65c0.3,1,1.2,1.3,2.2,1.4
		c1.1,0.2,2.3-0.1,3.5,0.3c2.2,0.7,4.1,0.2,5.8-1.3c1.6-1.5,3.1-3,4.7-4.5c0.8-0.7,1.7-1.3,1.2-2.5C25.6,57.1,24.4,57.2,23.2,57.1z
		 M277.2,22.7c-0.2-0.9-0.3-2-2-2.2c-6.7-0.9-13-0.2-18.6,3.9c-1.1,0.8-1.6,1.6-1,2.9c0.6,1.5,1.8,1.3,2.9,1c3.3-1,6.7-1.9,9.9-3
		c1.9-0.6,3.8-0.7,5.6-0.3C276.5,25.7,276.9,25.6,277.2,22.7z M714.6,37.7c3,2.5,7.6,1.3,8.8-2.4c0.8-2.3,1.8-4.1,4.1-5.1
		c0.6-0.3,1.3-0.9,1.2-1.8c-0.1-1.1-1-1.1-1.8-1.4c-4.5-1.4-8.2,0.4-11.9,2.5c-0.9,0.6-2,2.2,0.4,2.8c1,0.3,1.9,1,2,2
		c0.1,1.1-0.6,2-1.7,2.4C715.3,37,714.7,37,714.6,37.7z M193.8,86.9c0.1,0.9,0.1,1.8,0.3,2.7c0.6,2.4,2.8,2.5,4.7,3
		c1.8,0.5,2.1-1,2.5-2.1c0.4-1.3,1.2-2.3,2.2-3.2c2.2-1.9,2.5-3.7,1-5.1c-1.9-1.7-4.3-1.7-6.3-0.8C196.1,82.5,193.6,83.7,193.8,86.9
		z M622.1,42.8c2.3-0.1,3.9-1.9,6.1-2.4c1.9-0.4,2-1.9,0.6-3.4c-2.2-2.3-5.2-3-8-4.2c-1.2-0.5-4.7,1.9-4.9,3
		C615.5,38.2,619.6,42.8,622.1,42.8z M-36.4,14.5c-6.8-4.2-7.7-4.9-11,2.1c-0.7,1.4-0.4,2.2,1.2,2.5c1.7,0.3,3.3,0.9,4.8,1.9
		c1,0.7,2.2,0.7,3.4,0.8c0.8,0.1,1.5-0.2,1.9-0.9c0.5-0.7-0.1-1.3-0.5-1.8C-38.2,17.6-38.7,16.1-36.4,14.5z M399.4,76.4
		c0-0.4,0-0.7,0-0.9c-0.1-3.9-1.2-4.5-4.8-3.3c-3,1-4.6,3.4-6.7,5.4c-0.5,0.5-0.5,1.3-0.2,1.9c0.3,0.6,0.9,0.8,1.7,0.8
		c2.4-0.2,4.7-0.3,7.1-0.5C399,79.5,400.1,78.8,399.4,76.4z M670,68.1c-1.5-0.1-2.3,0.9-1.9,2.3c1,3.5,3.1,6.5,5.5,9.3
		c0.4,0.5,1,1,1.7,0.3c1-0.9,2.2-7.2,1.3-8.2C674.8,70,674.1,66.4,670,68.1z M361.1,65.6c0.1-1.3-1.6-2-3.4-1.1
		c-2.6,1.3-4.6,3.6-7.7,4.2c-1.8,0.4-1.6,2.5-0.8,4c0.7,1.3,1.7,1.3,3.1,0.7c2.1-0.9,3.8-2.4,5.7-3.5
		C359.5,69,360.7,67.6,361.1,65.6z M771.7,134.1c-2.5,0-3.7,1.8-3.7,5.2c0,1.7,0.6,2.5,2.4,2c1.9-0.5,3.9-1.1,5.9-0.6
		c1.2,0.3,2.5,0.9,3-0.5c0.5-1.3,0.2-2.9-1.1-3.8C776.2,135.1,774,134.2,771.7,134.1z M-64.4,16.8c1.5-1.6,3.8-1.4,4.5-3.3
		c1.3-3.5-1.5-10.2-4.7-12c-1.6-0.9-2.4-0.4-2.3,1.4c0,1.4,0.6,2.6,1.1,3.8c1.2,2.7,3.5,5.2,1.2,8.4C-64.7,15.4-64.5,15.8-64.4,16.8
		z M687.9,35.7c0.9,1.4,2,2.5,3.6,2.6c2.2,0.1,4.3,0,6.5,0c0.7,0,1.4-0.2,1.6-0.9c0.4-2.1-0.1-3.8-1.7-5.4c-1.5-1.4-2.3-0.4-3.4,0.4
		c-0.3,0.2-0.8,0.1-1.2,0.3C691.5,33.5,689.3,33.6,687.9,35.7z M637.5,80.9c-0.9,1.2-0.5,2.4-0.6,3.4c0,0.9-0.4,1.4-1.2,2
		c-4.1,2.7-5.3,8.4-3.8,13.1C636.4,96.7,639.9,85.6,637.5,80.9z M623,56.5c3.7,1.6,6.7,3.3,9.9,4.4c0.7,0.2,1.2,0.2,1.8-0.3
		c1.1-1.1,0.5-6.7-0.9-7.4c-0.2-0.1-0.5-0.1-0.7,0C629.8,53.9,626.5,54.7,623,56.5z M645.3,183.4c-0.1,0.9,0.3,1.8,1.2,1.9
		c1.4,0.3,2.6-0.7,3-1.8c0.9-2.7,3-4.5,4.5-6.8c0.4-0.6,1.1-1.1,0.5-2c-0.7-1-1.6-0.7-2.5-0.5c-1.4,0.4-2.2,1.6-3,2.5
		C647.3,178.7,645.6,180.7,645.3,183.4z M46.4,273.5c0.2,0,0.3,0,0.5,0c4.2-1.5,8.2-3.2,11.1-6.8c0.4-0.5,0.3-0.9-0.1-1.3
		c-0.6-0.6-1.2-0.6-1.8-0.1c-1.1,1.1-2.7,1.2-4,1.7c-2.4,1-5.1,1.6-6.8,3.8c-0.5,0.6-1.3,1-0.9,1.8
		C44.8,273.4,45.6,273.6,46.4,273.5z M7.4,170.8c1.9-0.1,3.2-1.1,4.3-2.3c0.6-0.7,0.6-1.5-0.3-2.1c-2-1.4-7-1.5-9-0.1
		c-1,0.7-2.1,1.8-1.8,3c0.3,1.3,1.8,1.2,3,1.1C4.9,170.4,6.2,170.4,7.4,170.8z M51.6,207.8c-1.7-0.8-3.5,0.4-5.4,0.7
		c-1.5,0.3-1.8,1.7-1.8,2.9c0,1.4,1.2,1.4,2.1,1.6c2.5,0.6,4.7-0.6,7-1.2c1.2-0.3,2.6-0.5,2.3-2.3c-0.3-1.8-1.7-1.8-3.1-1.8
		C52.5,207.7,52.2,207.7,51.6,207.8z M142.3,124.5c1.2-0.1,2.2-0.2,3.1-0.2c4.9-0.3,4.9-0.3,5.3-5c0-0.4,0.1-0.8,0.2-1.2
		c0.1-1.1,0.3-2.3-1.2-2.6c-1.2-0.2-2,0.5-2.4,1.6c-0.7,1.8-1.5,3.6-3.7,4.3C142.2,121.9,142.3,123.2,142.3,124.5z M126.9,178.8
		c-3.6,0.1-5.4,1.3-5.9,4c-0.2,1,0,1.8,0.7,2.5c0.4,0.4,1.2,0.8,1.5,0.3c1.4-2.1,3.8-1.5,5.6-2.2c1.3-0.5,2.1-1.4,1.8-2.9
		c-0.3-1.5-1.5-1.9-2.8-1.8C127.6,178.8,127.2,178.8,126.9,178.8z M141,108.6c0,2.2,1.1,3.2,3.1,2.6c1.6-0.5,3.1-1.3,4.3-2.4
		c1.1-1.1,1.1-2.6,0.5-3.9c-0.6-1.3-1.8-0.8-2.8-0.5c-0.6,0.2-1.3,0.1-1.9,0.4C142.3,105.3,140.8,106.3,141,108.6z M-60,98.2
		c0.1-2-1.2-3.6-1.8-5.4c-0.3-1.1-0.5-2.8-2-2.3C-65.3,91-66.9,92-67,94c-0.1,1.5,3.2,5.7,4.7,6.1C-60.7,100.5-60,99.7-60,98.2z
		 M250.6,130.9c-0.1-1.3-0.3-2.3,0.5-3.3c0.9-1,0.4-1.9-0.5-2.5c-1.5-1-3-2-4.6-2.9c-0.7-0.4-1.6-0.6-2.3,0.1
		c-0.6,0.7-0.2,1.4,0.3,2c1.5,1.7,2.2,3.5,1.6,5.8C247.3,130.4,248.8,130.6,250.6,130.9z M710.2,121c-0.2,2-1.3,2.7-3,2.8
		c-1.9,0.2-3.7,0.6-5.6,1.1c-0.8,0.2-1.8,0.7-1.6,1.9c0.2,1.2,1.2,1.1,2.1,1.3c3.8,0.7,6.9-1.1,9.9-3c0.8-0.5,1.7-1,1.6-2
		c-0.1-0.9-1.2-1-1.9-1.4C711.4,121.4,711,121.3,710.2,121z M-1.5,91.1c-0.1-1.3,0.2-2.8-1.5-3.3c-1.5-0.5-2.2,0.7-2.9,1.7
		c-0.5,0.7-1.1,1.3-1.4,2C-8.1,93.3-8,94.9-6.3,96c1.6,1,2.8,0,3.8-1.2C-1.6,93.7-1.7,92.4-1.5,91.1z M-69.3,86.5
		c0.1-1.8-0.2-3.3-2.4-2.7c-1.8,0.5-3.5,1.5-4.8,3c-0.6,0.7-1.2,1.8-0.2,2.4c1.5,0.9,3.3,1.8,5.1,1C-70,89.5-69.1,88.2-69.3,86.5z
		 M441.6,86.5c0.7,0,2.1,0.2,3.4-0.6c1.1-0.6,2-1.6,1.4-2.8c-0.7-1.4-1.9-2.7-3.5-2.9c-1.3-0.1-2.8,0.2-3.5,1.8
		c-0.3,0.7-0.9,1.4-1.6,1.9c-0.6,0.5-0.9,1-0.6,1.7c0.3,0.7,0.9,0.9,1.6,0.9C439.6,86.5,440.2,86.5,441.6,86.5z M241.8,98.9
		c1.1-0.1,2.1-0.4,2.5-1.5c0.3-0.7,0.5-1.7-0.1-2c-1.8-0.8-1.8-2.3-2.2-3.8c-0.5-1.9-2.3-1.6-3.7-1.1c-1.7,0.6-0.6,1.6-0.1,2.5
		c0.5,1.1,1.5,2.1,1.3,3.4C239,98.6,240.5,98.7,241.8,98.9z M416.5,83.5c0.1,0.9,0,1.6,0.7,2c0.7,0.4,1.7,1.2,2.2,0.5
		c1.3-1.5,3.5-1.6,4.6-3.1c0.1-0.2-0.2-0.6-0.3-0.9c-0.7-2.1-2.5-3.2-4.4-2.8C417.1,79.6,417,82,416.5,83.5z M81.6,201.8
		c2.8,0,5.6-1.7,5.3-3.3c-0.4-2.2-2.4-2.2-3.9-2.3c-2.6-0.2-4.3,1-4.2,2.7C78.8,201,80,201.8,81.6,201.8z M129.8,22.2
		c0-1,0.3-2.1-0.9-2.7c-1.1-0.5-1.9,0.2-2.8,0.7c-2,1.3-2.1,3.3-2,5.3c0,1.7,1.7,2.6,2.9,1.4C128.5,25.7,130,24.4,129.8,22.2z
		 M304.9,83.7c-0.3,0.1-0.6,0.3-0.8,0.4c-1.9,1.3-2.2,5.7-0.5,7.3c0.8,0.8,1.6,0.8,2.4,0c0.6-0.7,1.3-1.3,1.9-2c0.9-1,0.6-2,0-3
		C307.1,85.3,306.3,84.1,304.9,83.7z M169.6,107.6c0.1,1-0.1,2.6,1.7,2.8c1.7,0.1,3.9-2.6,4-4.7c0.1-1.6-0.5-2.5-2.3-2.5
		C170.5,103.1,169.7,104,169.6,107.6z M219.2-2c-2.1,0.3-4.2,0.5-6.2,0.8c-0.7,0.1-1.6,0.5-1.5,1.4c0,0.8,0.5,1.4,1.4,1.8
		c2.5,1.2,4.8,0.9,7.1-0.2c1-0.5,2.5-0.9,2.1-2.3C221.7-1.8,220.3-2,219.2-2z M69.6,145.1c0.1-2.4-1.2-4-3.4-3.9
		c-2.5,0.1-1.7,2.3-1.9,3.6c-0.3,2.2,1.3,4.1,3.1,4.1C70.2,148.8,69.1,146.4,69.6,145.1z M603.8,72.1c3.7-2.4,7.2-9.4,6.4-12.6
		c-1.3,2.1-3,3.4-5.1,4.3c-0.4,0.2-0.7,0.7-0.7,1.2C604.3,67.3,604.6,69.5,603.8,72.1z M-22.2,11.5c-0.3,2.5,1.3,4.1,2.5,5.8
		c0.4,0.6,1.2,0.8,2,0.4c0.7-0.3,1.1-0.7,1-1.5c-0.2-2.4-0.7-4.6-2.9-6.1c-0.6-0.4-1.1-0.8-1.8-0.5C-22.1,10-22.2,10.8-22.2,11.5z
		 M214.2,113.6c2.3,0.3,3.1-0.3,2.8-1.6c-0.3-1.4-4.3-4-5.8-3.7c-0.5,0.1-1.1,0.3-1.1,0.8c-0.2,1.5-0.5,3,0.4,4.4
		c0.8,1.3,1.9,0.3,2.9,0.1C213.9,113.6,214.3,113.6,214.2,113.6z M137.4,203.3c1.2,0.8,2.4,1,3.6,0c1.2-1.1,1.4-4.1,0.5-5.8
		c-0.6-1-1.3-1.7-2.6-1.6c-1,0.1-1.7,0.5-2,1.5c-0.3,1.1-0.2,2.1,0.8,2.9c0.4,0.4,1,0.7,1.1,1.3
		C138.5,202.4,137.4,202.1,137.4,203.3z M113.2,15.7c-2.6-2.4-8.5-1.5-9.8,1.4c-0.4,0.9-0.1,1.6,0.5,2.3c0.6,0.6,1.5,0.5,1.8,0
		c1.4-2.3,3.6-2.4,5.9-2.4C112.2,16.9,112.8,16.6,113.2,15.7z M34.8,45.7c-3.7-0.4-6.4,1.7-6.8,5.1c-0.1,1.1,0.7,1.6,1.5,2
		c0.9,0.5,1.4,0,1.7-0.8c0.6-1.4,1.5-2.5,2.7-3.5C34.7,47.9,35.1,47,34.8,45.7z M256.2,80.4c-1.4,0.2-3,1.3-4.7,2.2
		c-0.7,0.4-0.6,1.3-0.4,2c0.3,0.7,0.8,1.6,1.5,1.4c2-0.6,4.3-0.7,5.4-3C259,81.2,258.6,80.4,256.2,80.4z M639.4,50.1
		c0.4,2.2,0.6,4.1,1.2,5.8c0.3,1.1,1.2,1.8,2.6,1.2c1.9-0.8,4.1-1.3,5.8-2.6c0.8-0.6,2.1-0.6,2.2-2c-0.9-0.4-1.8-0.6-2.6,0.1
		c-0.9,0.8-2,1.2-3.1,1.4c-1.8,0.5-3.6,0.5-3.7-2.2C641.7,50.5,640.7,50.4,639.4,50.1z M621.4,150.8c-4.6,1.9-6.8,5.8-4.7,8.1
		C622.3,154.5,623.4,153.8,621.4,150.8z M84.8,182.9c2.5,0,2.9-1.5,3-3.1c0.1-1.5-0.3-3.1-2.3-3.2c-1.7-0.1-3.2,1.4-3.1,3.1
		C82.4,181.4,83.1,182.8,84.8,182.9z M89,126.8c0.1-1.5-0.6-2.4-2.1-2.4c-1.7,0-4,1.9-3.7,3.3c0.2,1.3,0.9,2.6,2.5,2.6
		C87.4,130.4,89,128.7,89,126.8z M18,225.4c-1.1,0.7-3.2,0.9-3.5,2.4c-0.3,1.3,1.5,1.4,2.5,1.8c0.8,0.3,1.4,1,2.1,1.2
		c1.4,0.5,2.5,0.1,2.7-1.6C22,227.7,19.8,225.4,18,225.4z M772,147.4c0.4,2,2,3,3.4,3.9c1.7,1,2.6-0.8,3.3-1.7
		c0.7-0.9,0.5-2.3-1-2.7C775.8,146.2,773.9,145.7,772,147.4z M483.7,53.7c1-0.1,1.7,1,2.8,0.3c1.9-1.3,3.7-2.7,5.5-4
		c0.7-0.5,0.7-1.2,0-1.6c-1.2-0.8-2.6-1.4-3.9-0.4C486.4,49.6,484.4,51,483.7,53.7z M115.6,101.7c0.9,0,1.8-0.3,1.9-1.6
		c0.1-1.5-2.4-4-4.1-4.1c-1.3,0-2.2,0.6-2.3,2C110.8,99.5,113.4,101.6,115.6,101.7z M207.2,111.8c-0.3-1.2-1-1.4-1.8-1.3
		c-2.1,0.2-3.7,1.3-4.9,2.9c-0.5,0.7-0.9,1.8-0.1,2.5c0.9,0.9,1.8,0.4,2.7-0.2c0.6-0.4,1.3-0.7,1.8-1.3
		C205.8,113.6,206.5,112.6,207.2,111.8z M17.3,179c-0.2,0.9,0.2,1.7,1.1,2.2c1.1,0.6,1.7-0.1,2.3-0.9c0.7-1,1.5-2,2.2-3
		c0.4-0.6,0.6-1.2,0.2-1.8c-0.3-0.5-0.7-0.6-1.3-0.6C20.5,174.9,17.5,177.5,17.3,179z M295.4,3.5c1.4-1.7,3.6-2.4,4.4-4.5
		C298-2.4,296-2.6,294-2.3c-1.5,0.2-2.4,1.1-1.1,2.7C293.6,1.4,294.4,2.3,295.4,3.5z M4,88.7c1.7,0.3,2.5-0.4,2.5-1.6
		c0.1-2.1-1.4-2.9-3.1-3.2c-1.4-0.2-2.8,0.6-2.8,1.9C0.6,87.9,2.8,88,4,88.7z M596.6,16.4c-1.6-1.4-3.9-1.1-5.2-2.7
		c-0.6-0.8-1.3-0.7-2.1-0.1c-1,0.8-0.7,1.6-0.2,2.4C590.7,19,592.9,19.2,596.6,16.4z M-98.5,115.9c1.9-0.1,3.8-0.4,4-2.5
		c0.2-1.6-1.5-1.5-2.6-1.5c-1.8,0-3.7,0.4-3.9,2.6C-101.2,116.2-99.5,115.8-98.5,115.9z M772.1,109.6c0.9,0.9,1.8,1.7,2.8,1.2
		c0.9-0.5,1-1.6,1-2.6c0-1,0.3-1.9,0.4-2.9c0-1.1,0.4-2.5-1.4-2.6c-1.7-0.1-1.8,1.2-1.8,2.4C773,106.6,773.1,108.2,772.1,109.6z
		 M562.2,100c1.8,0,5-2,4.8-3.2c-0.2-1.3-1.3-1.9-2.5-1.9c-1.8,0-4.3,2.1-4.2,3.5C560.3,99.7,561,100.1,562.2,100z M444.5,92.6
		c-1.2,0.8-2.7,0.3-4.2,0.5c-0.7,0.1-1.3,0.6-0.9,1.4c0.6,1.3,1.4,2.5,3,2.6c0.8,0,3.6-2.7,3.6-3.4C446,92.8,445.5,92.6,444.5,92.6z
		 M109.5,226.4c-1.5,0.1-2.9,0.6-2.8,2.2c0,1.5,1.3,2,2.7,1.9c1.5,0,3.1-0.3,3-2.1C112.4,226.8,110.7,226.7,109.5,226.4z
		 M260.8,84.4c-0.1,0.9,0,1.7,1,2c0.7,0.2,4.3-2,4.3-2.6c0.1-1.1-0.6-1.8-1.6-1.8C263,82.2,261,82,260.8,84.4z M-15,189.7
		c-2.1-2.3-5.3-2.2-7,0C-19.8,192-18.1,192.1-15,189.7z M527.5,18.2c0,2.8,2.8,4.6,4.9,3.4c0.5-0.3,1.1-0.8,1.1-1.5
		c0-0.9-0.6-1.2-1.3-1.5C530.7,17.8,529.1,18.3,527.5,18.2z M-5.4,167.3c-1.7,0.1-3,0.9-3.1,3c0,1.1,0.7,1.6,1.8,1.6
		c1.2,0,3.2-2.3,3.1-3.5C-3.8,167.4-4.4,167.2-5.4,167.3z M42.6,48.8c1.3-0.3,3.1-0.2,3.3-2.2c0.1-1.3-0.6-2.1-1.9-2
		c-1.6,0.2-2.9,0.9-3.2,2.7C40.5,48.5,41.4,48.8,42.6,48.8z M10.5,80.8c-0.9,0.2-1.2,0.7-1.1,1.3c0.4,1.8,1.5,3.3,2.7,4.6
		c0.4,0.4,0.9,0.1,1.2-0.4c0.6-0.9,0.5-1.8-0.1-2.6C12.4,82.7,11.7,81.4,10.5,80.8z M534.3,94.6c0.5,0,1.5-0.1,1.7-1
		c0.3-1.9-1.7-2.9-2.2-4.5c-0.2-0.5-0.8-0.6-1.3-0.3c-0.1,0.1-0.3,0.2-0.4,0.3c-1.2,1.2-0.3,2.5-0.2,3.7
		C531.9,93.8,532.8,94.5,534.3,94.6z M650.7,140.3c-2.5-0.6-5-1.2-7.4,0c-0.8,0.4-0.5,1.4-0.1,2.2C646,143,648.4,141.8,650.7,140.3z
		 M356.4,129.5c-0.7-1.3-1.4-2.7-3-3c-0.8-0.1-1.9,0.2-1.6,1.3c0.3,1.4,0.7,3,2.6,3.2C355.3,131.1,356.1,130.7,356.4,129.5z
		 M207.5,118.6c-0.4,0.1-0.8,0.1-1.2,0.2c-1.3,0.3-2.3,1-1.8,2.4c0.5,1.3,1.6,1.2,2.7,0.7c0.3-0.1,0.6-0.3,0.9-0.4
		c0.8-0.4,2-0.5,1.8-1.7C209.7,118.5,208.4,118.8,207.5,118.6z M464,96.6c0.1-0.9-0.5-1.3-1.2-1.5c-1.4-0.3-3.6,1.2-4,2.7
		c-0.2,1.1,0.4,1.5,1.3,1.6C461.5,99.7,463.7,98.1,464,96.6z M550.4,90.1c-1.6-2.4-2.5-3-4.5-3.3c-0.8-0.1-1.3,0.1-1.6,0.8
		c-0.2,0.6,0.3,1.2,0.8,1.3c1.4,0.4,2.5,1.1,3.7,1.9C549.6,91.2,550.1,90.8,550.4,90.1z M748.2,137.7c0.6,3.9,1.3,4,5.6,0.7
		C752.1,137.1,750.2,137.8,748.2,137.7z M87.5,108.7c-2-2-3.6-1.3-5.6-0.1C84,110.3,85.5,110.3,87.5,108.7z M643.3,131.1
		c-0.8,1-2.9,1.6-1.2,3.1c1.2,1.2,2.9,1.4,4.4-0.5C645.3,132.9,644.4,132,643.3,131.1z M254.4,31.5c-1.1-1.3-2.1-2.3-3.6-1.4
		c-0.6,0.4-0.7,1.2-0.1,1.7C251.9,32.7,253.1,32.5,254.4,31.5z M582.1,113.5c1.4-1.1,3.7-0.2,4.6-2.5c-1.9-0.7-3.4-0.5-4.8,0.5
		C581.1,112,581.8,112.6,582.1,113.5z M667.5,273.5c1.8-2.6,1.6-3.4-1.2-4.9C666.7,270.2,667.1,271.7,667.5,273.5z M575.3,99.1
		c1.7,1.5,2.6,0.5,3.3-0.6c0.4-0.7,0.9-1.8-0.2-2C576.4,95.9,576.5,98.2,575.3,99.1z M535.6,84.9c1.4-1.2,1.5-1.5,0.8-2.5
		c-0.9-1.3-1.7-1.5-3.5-0.7C534,82.7,534.3,84.2,535.6,84.9z M814.7,10.2c0.1,1.1-0.2,1.9,0.2,2.8c1.5,0.7,2.3-0.2,2.4-1.5
		C817.4,10,816.2,10.1,814.7,10.2z M223.7,28.9c-0.9,0.1-1.3,0.7-1.4,1.5c-0.1,0.8,0.3,1.5,1.2,1.6c1,0,1.1-0.9,1.2-1.6
		C224.8,29.7,224.4,29.1,223.7,28.9z M-103.3-6.3c1.8,1.6,2.8,4.1,5,5.4c0.5,0.3,0.8,0.9,0.4,1.5C-98.3,1.2-99,1.2-99.5,1
		c-1.9-0.6-3.9-1.1-5.3-2.7c-1.2-1.3-2.4-2.2-4.3-1.2c-1.5,0.8-3.2-1.1-4.8,0.3c0.2,1.5,0.8,2.3,2.5,2.9c4.4,1.5,5.9,4.7,4.6,8.7
		c-1.3,4.1-4.2,4.9-7.6,2.2c-0.5-0.1-0.8,0.3-1,0.6c-2.3,2.8-2.3,2.8-5,0.1c-0.7-0.7-1.6-1.2-2.6-0.2c-2.1,2.2-3.8,2.1-5.5-0.4
		c-1.3-1.9-2.5-3.9-3.7-5.9c-0.8-1.2-1.8-2-3.1-3c-0.8,1.5-1.2,3.4-3.4,3.1c-1-0.2-2.1-0.3-2.4-1.5c-0.4-1.5,1.3-2,2-3.3
		c-3.9-1.6-7.7-2.9-12.2-2.5c1.3,1.3,3.2,1,4.2,2.3c2.9,3.4,4.6,7.4,5.2,11.8c0.3,2-2.6,4-4.4,3.1c-1.4-0.6-1.2-2.1-0.7-3
		c2-3.6-0.1-6-2.3-8.3c-0.3-0.4-0.8-0.6-1.2-0.9c-0.8-0.4-1.6-0.7-2.2,0.2c-0.5,0.8-0.3,1.5,0.5,2.2c0.9,0.8,2.5,1.7,2.2,2.8
		c-0.7,2.3,0.4,4.7-0.8,6.8c-0.7,1.1-1.2,2.2-0.5,3.5c0.6,1.4,0.7,2.8-0.4,4c-1.1,1.1-2.3,0.1-3.5-0.2c-1.3,0.7-0.9,1.7-0.6,2.8
		c0.7,2.6-0.3,3.6-2.9,3.2c-1-0.2-2.1-0.5-3.1,0c0,0.4-0.1,0.7,0,0.9c0.7,1.3,1.6,2.6,0.5,3.9c-1,1.2-2.5,0.5-3.8,0.2
		c-2.3-0.4-4.6-0.9-6.9-1c-2.4-0.1-3.9-1.2-4.6-3.7c-0.5-1.9-0.3-3.8-0.1-5.7c0.2-2,2.2-2.1,3.8-2.5c0.3-2-1.1-2.7-2.4-3.3
		c-4.2-1.8-8.8-2.3-13.4-4.4c0.4,1.7,0.8,3,1,4.2c0.3,2.1-0.8,3.4-3,3.2c-2.5-0.2-4.9-0.8-6.5-3.1c-0.6-0.9-1.4-1.3-2.5-0.4
		c-1,0.9-2.3,1.3-3.6,1.6c-2.2,0.5-3.8,1.6-4.6,3.8c-0.5,1.5-1.5,1.6-2.6,0.4c-2.8-2.9-5.9-5.5-9-8c-2.6-2.1-5.5-2-8.5-1
		c-0.3,0.1-0.6,0.3-0.9,0.5c-4.1,2.1-5,2-8-1.6c-1.2-1.4-2-2.2-3.9-0.9c-1.6,1.1-3.3-0.2-3.1-2.2c0.4-3.6-0.5-7-0.9-10.5
		c-0.1-0.7-0.3-1.5-1-1.5c-2,0-3-1.5-4.3-2.5c0.2-0.3-0.5-1.1,0.5-1c0.6,0,1.2,0,1.8,0c27.9,0,55.9,0,83.8,0
		c0.6,3.4,4.9,3.2,5.6,6.7c1.4-1.8,2.6-4.7,2.9-6.7C-138-6.3-120.7-6.3-103.3-6.3z M-163,18.7c1.7-0.3,3.5-0.5,5.3-2.2
		C-160.3,16.5-161.7,17.4-163,18.7z"/>
</g>
<g id="swing">
	<path class="st0" d="M282.5,487.3c-0.2-0.4-0.5-0.3-0.8-0.5c-1.8-1-2.3-2.7-1.3-4.4c0.5-0.8,1.1-1.5,1.6-2.2c1.2-1.7,1.4-2.5,1.3-5
		c-0.9-0.6-1.9-0.1-3-0.5c-0.7-0.7-0.4-2-1.2-2.5c0-1.2,1-1.5,1.4-2.7c-0.7-5.9-1.9-12.3,0.6-18.7c5.4,2.4,11.1,4.7,16.9,6.9
		c-0.7,1.3-2.2,1-3.2,2c-0.2,2.9-1.3,5.8-1.3,8.7c0.9,1,2.2,0,2.9,1.1c-1,0.9-2.3,0-3.3,0.8c0,0.2-0.1,0.6,0,0.7
		c1.3,1.4,1.6,3.2,2.1,5c0.6,2.1-0.3,3.7-2.5,4.4c-0.3,0.1-0.6,0.1-1,0.2c-0.5,1.8-1,3.6-2.6,4.7c-1.4,1-2.8,1.7-4.6,1.8
		c-0.6,0-1.2-0.2-1.6,0.4C282.9,487.3,282.7,487.3,282.5,487.3z"/>
	<path class="st0" d="M331.9,410.1c-0.2-1.2-0.9-2-1.9-2.8c-0.8-0.6-1.7-1.1-2.5-1.6c-1.1-0.6-2.2-1.3-2.3-2.7
		c1.2-2.2,3.3-3.4,6.3-3.5c2.1-1.9,2.1-1.9,2.1-3.5c1-0.5,1.6,0.2,2.4,0.7c0.8-0.6,1-1.6,1.2-2c0.6-2.9-0.8-5.2-0.2-7.8
		c0.1-0.6-0.1-1.3-0.9-1.6c-0.7-0.3-1-0.8-1.1-1.5c0-0.1-0.2-0.2-0.4-0.3c-0.8,0-1.3,0.8-2.1,0.6c-0.6-0.6-0.9-1.7-2.1-1.3
		c-1,0.8-0.5,2.1-0.9,3.2c-1-1.1-0.8-2.1-0.6-2.9c-0.8-0.8-1.7-1.2-2.2-2.1c0-0.2,0-0.3,0-0.5l-8.5,13.3c0.6,0.7,1,1.5,0.9,2.5
		c-0.1,0.8,0,1.7,0,2.5c-0.1,2-0.3,2.3-2.7,3c-0.9-0.6-1.8-0.9-2.7-1l-8.6,13.5c0,0.1,0,0.2,0,0.3c0.3,1.2,1.1,2.2,1.2,3.9
		c-2.8,3.1-5.4,6.7-7.9,10.4l19.4,7.5c0.9-2.3,1.6-4.6,3.1-6.4c0.5-0.7,1-1.5,0.9-2.3c-0.2-1.8,0.5-2.9,1.9-4
		c1.1-0.9,1.9-2.1,2.5-3.4c0.3-0.6,0.5-1.4,1.5-2c0,1.1,0.2,2.2,0.5,3.2l4.7-9.3c-0.1-0.1-0.2-0.2-0.2-0.3
		C332.2,411.4,332,410.7,331.9,410.1z"/>
	<path class="st0" d="M344.5,439.1c-0.6-0.8-0.1-1.7-0.8-2.4c-1.2-0.7-2.1-1.8-2.6-3.3c-1.4-3.7-2.9-7.4-4.3-11.1
		c-0.6-1.6-0.9-3.3-2.2-4.6c0,0,0,0,0,0l-4.6,9.1c0.1,0.3,0.3,0.5,0.5,0.7c1.2,0.8,1.6,2.1,2.2,3.3c1.5,3,3,6.1,4.6,9.2
		c0.4,0.7,0.6,1.7,1.4,2c1.7,0.5,3.3,1.1,4.6,2.2c0.7-0.6,1.5,0.1,2.1-0.1c0.3-0.4,0.1-1.1,0.9-1.2c2.7,0.9,2.7,0.9,3.7,0.3
		c-0.5-1-2.1-0.6-2.5-1.7c1.4-0.6,2.8,0.5,4.1-0.1c0.2-0.6,0.2-1.1-0.1-1.6C349.2,438.6,346.7,439.8,344.5,439.1z"/>
	<path class="st0" d="M301.8,404.3c-1.1,0.5-2.5,0.8-3.4,1.6c-1.7,1.6-3.5,2.9-6,3.5c-1.1-1.6-2.6-1.9-4.5-1.3
		c-1,0.3-2.1,0.5-3.1,0.8c-0.7,0.2-1.5,0.4-2.2,0c-2.8-1.2-6.3-1.3-8.3-4.1c-0.3-0.4-1-0.6-1.5-0.9c-0.4-0.2-0.8-0.3-1.1,0.2
		c-0.2,1.2,1.5,1.2,1.6,2.3c-0.9,0.2-1.7-0.8-2.7-0.4c0.1,1.7,2.2,1.3,2.6,2.6c-0.8,0.3-1.6-0.9-2.4-0.1c0.6,1.6,2.6,1.4,3.6,2.4
		c-0.6,1.1-1.8-0.2-2.3,1c0.1,0.3,0.4,0.7,0.8,0.7c1.9-0.1,3.3,1,4.8,1.7c1,0.5,2.1,0.6,3.1,0.7c3.5,0.3,7,0.1,10.5,0.2
		c2.7,0.1,5.3,0.4,7.8-0.9c0.4-0.2,1-0.2,1.4-0.2l8.1-12.8C306.2,401.9,304.1,403.3,301.8,404.3z"/>
	<path class="st9" d="M328.1,421.5l-8,15.8l-2.3-0.9c0,0,0,0,0,0.1c-1.2,0.5-2.2-0.3-3.2-0.7c-4.8-2.1-9.8-3.5-14.4-5.9
		c-0.6-0.3-1.4,0-1.9-0.6c0.1-0.1,0.1-0.2,0.2-0.3l-2.2-0.8l8.8-13.8c0-1,1-1.9,0.9-3.2c-1.9,0.9-3.9,1.2-5.4,2.9c0,0-0.1,0-0.1,0
		l-8,12.6l-2.7-1c-7.3-2.8-15.6,0.8-18.5,8.2l-0.5,1.2c-2.8,7.3,0.8,15.6,8.2,18.5l32.8,12.7c7.3,2.8,15.6-0.8,18.5-8.2l0.5-1.2
		c2.7-6.9-0.5-14.7-7-18l6.1-12c-0.1-0.3-0.2-0.7-0.4-1.1C329.1,424.3,328.5,423,328.1,421.5z"/>
	<path class="st9" d="M313.7,400.8l4.5-7.1c-0.2-0.2-0.4-0.5-0.7-0.7c0.6-1.5,1.3-2.8,2.1-4.1c1.8-2.9,3.5-5.8,5.3-8.7
		c0.3-0.5,0.5-1.1,0.7-1.6c0.3,0,0.7,0,1,0c0,0.6,0.1,1.2,0.1,1.8l110.2-172.8l-104,204.6c0.8,1.2,1,2.5,1.2,3.8
		c0.1,0.6,0.1,1.2,0.5,1.6l124.5-244.9l-3.5-2L308.7,401.3c0.1,0,0.1,0,0.2-0.1C310.5,400.8,312.1,400.5,313.7,400.8z"/>
	<path class="st9" d="M298.2,429.3c0.5,0.6,1.3,0.3,1.9,0.6c4.6,2.4,9.7,3.8,14.4,5.9c1,0.4,2,1.2,3.2,0.7c0,0,0,0,0-0.1l-19.4-7.5
		C298.4,429.1,298.3,429.2,298.2,429.3z"/>
	<path class="st9" d="M334.1,416c-0.2-1.3-0.4-2.7-1.2-3.8l-4.7,9.3c0.4,1.4,1,2.8,1.4,4.2c0.1,0.4,0.2,0.7,0.4,1.1l4.6-9.1
		C334.2,417.3,334.1,416.6,334.1,416z"/>
	<path class="st9" d="M326.6,378.7c-0.3,0-0.7,0-1,0c-0.2,0.5-0.4,1.1-0.7,1.6c-1.7,2.9-3.5,5.8-5.3,8.7c-0.8,1.3-1.5,2.6-2.1,4.1
		c0.2,0.2,0.5,0.4,0.7,0.7l8.5-13.3C326.7,379.8,326.6,379.3,326.6,378.7z"/>
	<path class="st0" d="M306,411.1c0.1,1.3-0.9,2.2-0.9,3.2l8.6-13.5c-1.6-0.2-3.2,0.1-4.9,0.5c-0.1,0-0.1,0-0.2,0.1l-8.1,12.8
		c0,0,0.1,0,0.1,0C302.1,412.3,304.1,412,306,411.1z"/>
</g>
<g id="Layer_10">
</g>
</svg>
