<?xml version="1.0" encoding="utf-8"?>
<!-- Generator: Adobe Illustrator 16.0.3, SVG Export Plug-In . SVG Version: 6.00 Build 0)  -->
<!DOCTYPE svg PUBLIC "-//W3C//DTD SVG 1.1//EN" "http://www.w3.org/Graphics/SVG/1.1/DTD/svg11.dtd">
<svg version="1.1" id="Layer_1" xmlns="http://www.w3.org/2000/svg" xmlns:xlink="http://www.w3.org/1999/xlink" x="0px" y="0px"
	 width="100%" viewBox="0 0 200 103.75" enable-background="new 0 0 200 103.75" xml:space="preserve">
        <path id="three" fill="#231F20" d="M48.895,36.177c0,6.161-2.613,11.761-6.72,15.681c4.107,3.92,6.72,9.334,6.72,15.494v9.147
            c0,11.947-9.707,21.654-21.654,21.654c-11.761,0-21.468-9.707-21.468-21.654v-6.348c0-1.68,1.307-2.986,2.987-2.986h5.974
            c1.68,0,2.987,1.307,2.987,2.986v6.348c0,5.413,4.293,9.707,9.521,9.707c5.414,0,9.707-4.294,9.707-9.707v-9.147
            c0-5.227-4.293-9.521-9.707-9.521c-1.68,0-2.987-1.307-2.987-2.986v-5.974c0-1.68,1.307-2.987,2.987-2.987
            c5.414,0,9.707-4.293,9.707-9.707v-8.96c0-5.227-4.293-9.521-9.707-9.521c-5.227,0-9.521,4.293-9.521,9.521v6.534
            c0,1.494-1.307,2.987-2.987,2.987H8.759c-1.68,0-2.987-1.493-2.987-2.987v-6.534c0-11.76,9.707-21.468,21.468-21.468
            c11.947,0,21.654,9.708,21.654,21.468V36.177z M76.334,27.67v12.32c0,1.68-1.307,2.987-2.987,2.987h-5.974
            c-1.68,0-2.987-1.307-2.987-2.987V27.67c0-1.68,1.307-2.987,2.987-2.987h5.974C75.027,24.684,76.334,25.99,76.334,27.67z
            M76.334,72.846v12.32c0,1.681-1.307,2.987-2.987,2.987h-5.974c-1.68,0-2.987-1.307-2.987-2.987v-12.32
            c0-1.68,1.307-2.987,2.987-2.987h5.974C75.027,69.858,76.334,71.166,76.334,72.846z M134.948,27.216v49.283
            c0,11.947-9.708,21.654-21.468,21.654c-11.948,0-21.655-9.707-21.655-21.654V27.216c0-11.76,9.707-21.468,21.655-21.468
            C125.24,5.749,134.948,15.456,134.948,27.216z M123.001,27.216c0-5.227-4.294-9.521-9.521-9.521c-5.414,0-9.707,4.293-9.707,9.521
            v49.283c0,5.413,4.293,9.707,9.707,9.707c5.227,0,9.521-4.294,9.521-9.707V27.216z M193.563,27.216v49.283
            c0,11.947-9.707,21.654-21.468,21.654c-11.947,0-21.654-9.707-21.654-21.654V27.216c0-11.76,9.707-21.468,21.654-21.468
            C183.855,5.749,193.563,15.456,193.563,27.216z M181.615,27.216c0-5.227-4.294-9.521-9.521-9.521c-5.414,0-9.707,4.293-9.707,9.521
            v49.283c0,5.413,4.293,9.707,9.707,9.707c5.227,0,9.521-4.294,9.521-9.707V27.216z"/>
</svg>